<svg width="337" height="337" viewBox="0 0 337 337" fill="none" xmlns="http://www.w3.org/2000/svg">
<circle opacity="0.7" cx="168.132" cy="168.568" r="134.439" transform="rotate(-180 168.132 168.568)" fill="url(#paint0_radial_1376_6766)"/>
<circle cx="168.499" cy="168.5" r="91.5951" transform="rotate(-180 168.499 168.5)" stroke="white"/>
<circle opacity="0.6" cx="168.5" cy="168.5" r="168" stroke="url(#paint1_radial_1376_6766)"/>
<circle cx="168.127" cy="168.567" r="81.9874" transform="rotate(60 168.127 168.567)" fill="white"/>
<path d="M156.583 117.773C160.468 121.658 162.665 126.823 162.77 132.316C162.774 132.552 162.967 132.739 163.201 132.739H163.21C163.448 132.734 163.637 132.537 163.632 132.299C163.525 126.582 161.237 121.207 157.194 117.162L157.158 117.126C156.989 116.958 156.716 116.958 156.548 117.126C156.38 117.294 156.38 117.568 156.548 117.736L156.584 117.772L156.583 117.773Z" fill="#669AB4"/>
<path d="M155.912 148.306C152.01 151.885 146.943 153.855 141.637 153.855C141.619 153.855 141.598 153.855 141.58 153.855C141.343 153.855 141.148 154.047 141.148 154.285C141.148 154.523 141.34 154.716 141.578 154.717C141.598 154.717 141.617 154.717 141.637 154.717C147.159 154.717 152.433 152.668 156.495 148.942C156.67 148.78 156.682 148.507 156.521 148.332C156.36 148.156 156.086 148.145 155.911 148.306H155.912Z" fill="#7BB790"/>
<path d="M141.636 147.529C145.57 147.529 149.273 146.003 152.066 143.231L152.107 143.192C152.17 143.129 152.232 143.065 152.294 143.002C152.459 142.831 152.455 142.558 152.282 142.393C152.111 142.227 151.838 142.231 151.672 142.404C151.615 142.464 151.556 142.523 151.496 142.584L151.458 142.62C148.827 145.231 145.341 146.667 141.635 146.667C141.616 146.667 141.597 146.667 141.577 146.667C137.873 146.653 134.389 145.202 131.771 142.582L131.736 142.546C131.568 142.378 131.295 142.377 131.127 142.546C130.958 142.716 130.957 142.988 131.127 143.156L131.163 143.192C133.943 145.973 137.642 147.513 141.576 147.529C141.596 147.529 141.616 147.529 141.636 147.529Z" fill="#669AB4"/>
<path d="M151.498 122.856C154.129 125.488 155.58 128.984 155.583 132.706C155.583 133.301 155.546 133.902 155.471 134.491C155.441 134.727 155.607 134.944 155.845 134.973C155.863 134.976 155.882 134.976 155.899 134.976C156.114 134.976 156.299 134.816 156.326 134.599C156.405 133.972 156.446 133.335 156.446 132.704C156.441 128.753 154.901 125.039 152.108 122.245L152.072 122.209C151.904 122.041 151.63 122.041 151.462 122.209C151.294 122.377 151.294 122.651 151.462 122.819L151.498 122.853V122.856Z" fill="#669AB4"/>
<path d="M136.251 138.108C137.673 139.53 139.565 140.322 141.578 140.338C141.598 140.338 141.62 140.338 141.64 140.338C143.651 140.338 145.546 139.563 146.981 138.151L146.993 138.139C147.004 138.129 147.016 138.118 147.026 138.108C148.47 136.664 149.262 134.746 149.258 132.704C149.258 132.466 149.063 132.274 148.826 132.274C148.588 132.274 148.395 132.469 148.396 132.707C148.399 134.517 147.698 136.218 146.418 137.498L146.379 137.536C145.094 138.802 143.395 139.492 141.585 139.477C139.799 139.462 138.123 138.761 136.853 137.491L136.827 137.465C136.66 137.295 136.39 137.298 136.22 137.465C136.051 137.632 136.052 137.909 136.22 138.079C136.231 138.089 136.241 138.101 136.251 138.109V138.108Z" fill="#7BB790"/>
<path d="M181.904 158.073C181.901 154.504 180.613 151.06 178.276 148.376C178.119 148.196 177.848 148.177 177.668 148.334C177.488 148.491 177.469 148.762 177.626 148.942C179.826 151.47 181.038 154.712 181.041 158.074C181.044 161.804 179.595 165.312 176.955 167.951L176.917 167.987C176.748 168.155 176.746 168.427 176.914 168.596C176.999 168.681 177.11 168.724 177.221 168.724C177.331 168.724 177.441 168.683 177.524 168.599L177.566 168.559C180.367 165.758 181.907 162.034 181.904 158.073V158.073Z" fill="#669AB4"/>
<path d="M170.609 128.651L170.645 128.687C173.426 131.468 177.124 133.008 181.058 133.023C181.078 133.023 181.098 133.023 181.119 133.023C185.053 133.023 188.755 131.498 191.549 128.726C191.719 128.557 191.719 128.284 191.552 128.116C191.384 127.946 191.11 127.946 190.942 128.113C188.311 130.724 184.825 132.161 181.119 132.161C181.1 132.161 181.081 132.161 181.061 132.161C177.357 132.146 173.873 130.695 171.255 128.077L171.222 128.043C168.606 125.408 167.167 121.913 167.171 118.202C167.171 117.963 166.979 117.771 166.74 117.771C166.501 117.771 166.309 117.963 166.309 118.202C166.306 122.143 167.833 125.854 170.611 128.651H170.609Z" fill="#669AB4"/>
<path d="M175.696 123.567C175.696 123.567 175.699 123.572 175.7 123.573L175.729 123.602C177.151 125.024 179.043 125.816 181.056 125.832H181.059C181.079 125.832 181.098 125.832 181.118 125.832C183.13 125.832 185.026 125.056 186.461 123.644C186.631 123.477 186.634 123.204 186.466 123.034C186.299 122.864 186.026 122.861 185.856 123.03C184.583 124.282 182.903 124.971 181.118 124.971C181.1 124.971 181.082 124.971 181.062 124.971C179.276 124.956 177.6 124.255 176.33 122.985L176.304 122.958C175.046 121.682 174.355 119.993 174.357 118.201C174.357 117.963 174.165 117.77 173.927 117.769C173.69 117.769 173.496 117.961 173.496 118.198C173.492 120.219 174.273 122.124 175.692 123.563C175.692 123.563 175.695 123.565 175.695 123.566L175.696 123.567Z" fill="#7BB790"/>
<path d="M173.257 154.624C173.042 154.727 172.951 154.984 173.053 155.2C173.48 156.097 173.706 157.096 173.709 158.091C173.712 159.901 173.01 161.602 171.73 162.882L171.692 162.919C171.522 163.086 171.519 163.359 171.686 163.529C171.771 163.615 171.881 163.659 171.994 163.659C172.106 163.659 172.212 163.617 172.295 163.535L172.307 163.523C172.318 163.513 172.33 163.502 172.34 163.492C173.784 162.048 174.576 160.13 174.572 158.088C174.57 156.967 174.314 155.838 173.833 154.827C173.73 154.611 173.473 154.521 173.257 154.623V154.624Z" fill="#7BB790"/>
<path d="M171.772 152.395L172.582 151.253C171.039 149.975 169.118 149.279 167.089 149.279C165.06 149.279 163.139 149.975 161.598 151.253L162.407 152.395C162.851 153.021 163.69 153.205 164.366 152.841C165.194 152.394 166.124 152.156 167.09 152.156C168.057 152.156 168.988 152.394 169.815 152.841C170.491 153.206 171.329 153.022 171.773 152.395H171.772Z" fill="black"/>
<path d="M157.43 145.38L158.231 146.51C158.696 147.166 159.589 147.331 160.272 146.907C162.298 145.646 164.641 144.969 167.086 144.969C169.532 144.969 171.874 145.646 173.9 146.907C174.583 147.333 175.476 147.167 175.942 146.51L176.743 145.38C173.988 143.248 170.626 142.092 167.086 142.092C163.546 142.092 160.185 143.248 157.43 145.38Z" fill="black"/>
<path d="M153.27 139.511L154.066 140.634C154.531 141.289 155.432 141.471 156.105 141.031C159.343 138.914 163.128 137.777 167.087 137.777C171.047 137.777 174.83 138.913 178.07 141.031C178.743 141.471 179.644 141.289 180.109 140.634L180.905 139.511C176.943 136.521 172.14 134.902 167.087 134.902C162.035 134.902 157.234 136.521 153.27 139.511V139.511Z" fill="black"/>
<path d="M134.622 199.624C134.622 200.608 134.475 201.493 134.181 202.279C133.887 203.065 133.473 203.734 132.939 204.286C132.405 204.838 131.766 205.261 131.022 205.555C130.278 205.849 129.453 205.996 128.547 205.996H123.903V193.261H128.547C129.453 193.261 130.278 193.408 131.022 193.702C131.766 193.996 132.405 194.419 132.939 194.971C133.473 195.523 133.887 196.192 134.181 196.978C134.475 197.764 134.622 198.646 134.622 199.624ZM133.668 199.624C133.668 198.736 133.545 197.944 133.299 197.248C133.053 196.552 132.705 195.964 132.255 195.484C131.811 195.004 131.274 194.638 130.644 194.386C130.014 194.134 129.315 194.008 128.547 194.008H124.83V205.249H128.547C129.315 205.249 130.014 205.123 130.644 204.871C131.274 204.619 131.811 204.253 132.255 203.773C132.705 203.293 133.053 202.705 133.299 202.009C133.545 201.313 133.668 200.518 133.668 199.624ZM142.358 196.897C143 196.897 143.573 197.008 144.077 197.23C144.587 197.446 145.016 197.755 145.364 198.157C145.712 198.559 145.976 199.045 146.156 199.615C146.342 200.179 146.435 200.812 146.435 201.514C146.435 202.216 146.342 202.849 146.156 203.413C145.976 203.977 145.712 204.46 145.364 204.862C145.016 205.264 144.587 205.573 144.077 205.789C143.573 206.005 143 206.113 142.358 206.113C141.716 206.113 141.14 206.005 140.63 205.789C140.126 205.573 139.697 205.264 139.343 204.862C138.995 204.46 138.728 203.977 138.542 203.413C138.362 202.849 138.272 202.216 138.272 201.514C138.272 200.812 138.362 200.179 138.542 199.615C138.728 199.045 138.995 198.559 139.343 198.157C139.697 197.755 140.126 197.446 140.63 197.23C141.14 197.008 141.716 196.897 142.358 196.897ZM142.358 205.438C142.892 205.438 143.357 205.348 143.753 205.168C144.155 204.982 144.488 204.718 144.752 204.376C145.022 204.034 145.223 203.623 145.355 203.143C145.487 202.657 145.553 202.114 145.553 201.514C145.553 200.92 145.487 200.38 145.355 199.894C145.223 199.408 145.022 198.994 144.752 198.652C144.488 198.304 144.155 198.037 143.753 197.851C143.357 197.665 142.892 197.572 142.358 197.572C141.824 197.572 141.356 197.665 140.954 197.851C140.558 198.037 140.225 198.304 139.955 198.652C139.691 198.994 139.49 199.408 139.352 199.894C139.22 200.38 139.154 200.92 139.154 201.514C139.154 202.114 139.22 202.657 139.352 203.143C139.49 203.623 139.691 204.034 139.955 204.376C140.225 204.718 140.558 204.982 140.954 205.168C141.356 205.348 141.824 205.438 142.358 205.438ZM149.225 197.041H149.882C149.966 197.041 150.035 197.065 150.089 197.113C150.143 197.155 150.179 197.203 150.197 197.257L152.456 204.322C152.498 204.46 152.531 204.592 152.555 204.718C152.579 204.844 152.603 204.97 152.627 205.096C152.657 204.97 152.69 204.844 152.726 204.718C152.762 204.592 152.804 204.46 152.852 204.322L155.255 197.194C155.297 197.062 155.381 196.996 155.507 196.996H155.858C155.99 196.996 156.077 197.062 156.119 197.194L158.486 204.322C158.576 204.592 158.648 204.853 158.702 205.105C158.726 204.979 158.75 204.853 158.774 204.727C158.804 204.595 158.843 204.46 158.891 204.322L161.159 197.257C161.207 197.113 161.309 197.041 161.465 197.041H162.095L159.098 205.996H158.468C158.372 205.996 158.303 205.933 158.261 205.807L155.804 198.535C155.774 198.445 155.747 198.355 155.723 198.265C155.699 198.175 155.678 198.085 155.66 197.995C155.642 198.085 155.621 198.175 155.597 198.265C155.579 198.355 155.555 198.445 155.525 198.535L153.041 205.807C153.005 205.933 152.933 205.996 152.825 205.996H152.222L149.225 197.041ZM165.556 205.996V197.041H166.024C166.18 197.041 166.27 197.116 166.294 197.266L166.375 198.616C166.783 198.1 167.257 197.686 167.797 197.374C168.343 197.056 168.949 196.897 169.615 196.897C170.107 196.897 170.539 196.975 170.911 197.131C171.289 197.287 171.601 197.512 171.847 197.806C172.093 198.1 172.279 198.454 172.405 198.868C172.531 199.282 172.594 199.75 172.594 200.272V205.996H171.739V200.272C171.739 199.432 171.547 198.775 171.163 198.301C170.779 197.821 170.191 197.581 169.399 197.581C168.811 197.581 168.265 197.734 167.761 198.04C167.257 198.34 166.807 198.754 166.411 199.282V205.996H165.556ZM178.202 192.901V205.996H177.347V192.901H178.202ZM186.577 196.897C187.219 196.897 187.792 197.008 188.296 197.23C188.806 197.446 189.235 197.755 189.583 198.157C189.931 198.559 190.195 199.045 190.375 199.615C190.561 200.179 190.654 200.812 190.654 201.514C190.654 202.216 190.561 202.849 190.375 203.413C190.195 203.977 189.931 204.46 189.583 204.862C189.235 205.264 188.806 205.573 188.296 205.789C187.792 206.005 187.219 206.113 186.577 206.113C185.935 206.113 185.359 206.005 184.849 205.789C184.345 205.573 183.916 205.264 183.562 204.862C183.214 204.46 182.947 203.977 182.761 203.413C182.581 202.849 182.491 202.216 182.491 201.514C182.491 200.812 182.581 200.179 182.761 199.615C182.947 199.045 183.214 198.559 183.562 198.157C183.916 197.755 184.345 197.446 184.849 197.23C185.359 197.008 185.935 196.897 186.577 196.897ZM186.577 205.438C187.111 205.438 187.576 205.348 187.972 205.168C188.374 204.982 188.707 204.718 188.971 204.376C189.241 204.034 189.442 203.623 189.574 203.143C189.706 202.657 189.772 202.114 189.772 201.514C189.772 200.92 189.706 200.38 189.574 199.894C189.442 199.408 189.241 198.994 188.971 198.652C188.707 198.304 188.374 198.037 187.972 197.851C187.576 197.665 187.111 197.572 186.577 197.572C186.043 197.572 185.575 197.665 185.173 197.851C184.777 198.037 184.444 198.304 184.174 198.652C183.91 198.994 183.709 199.408 183.571 199.894C183.439 200.38 183.373 200.92 183.373 201.514C183.373 202.114 183.439 202.657 183.571 203.143C183.709 203.623 183.91 204.034 184.174 204.376C184.444 204.718 184.777 204.982 185.173 205.168C185.575 205.348 186.043 205.438 186.577 205.438ZM200.419 205.996C200.239 205.996 200.128 205.912 200.086 205.744L199.96 204.601C199.714 204.841 199.468 205.057 199.222 205.249C198.982 205.441 198.73 205.603 198.466 205.735C198.202 205.867 197.917 205.966 197.611 206.032C197.305 206.104 196.969 206.14 196.603 206.14C196.297 206.14 196 206.095 195.712 206.005C195.424 205.915 195.169 205.777 194.947 205.591C194.725 205.405 194.545 205.168 194.407 204.88C194.275 204.586 194.209 204.235 194.209 203.827C194.209 203.449 194.317 203.098 194.533 202.774C194.749 202.45 195.085 202.168 195.541 201.928C196.003 201.688 196.594 201.496 197.314 201.352C198.04 201.208 198.91 201.124 199.924 201.1V200.164C199.924 199.336 199.744 198.7 199.384 198.256C199.03 197.806 198.502 197.581 197.8 197.581C197.368 197.581 196.999 197.641 196.693 197.761C196.393 197.881 196.138 198.013 195.928 198.157C195.718 198.301 195.547 198.433 195.415 198.553C195.283 198.673 195.172 198.733 195.082 198.733C194.962 198.733 194.872 198.679 194.812 198.571L194.659 198.31C195.127 197.842 195.619 197.488 196.135 197.248C196.651 197.008 197.236 196.888 197.89 196.888C198.37 196.888 198.79 196.966 199.15 197.122C199.51 197.272 199.807 197.491 200.041 197.779C200.281 198.061 200.461 198.406 200.581 198.814C200.701 199.216 200.761 199.666 200.761 200.164V205.996H200.419ZM196.819 205.519C197.167 205.519 197.485 205.483 197.773 205.411C198.067 205.333 198.337 205.228 198.583 205.096C198.835 204.958 199.069 204.796 199.285 204.61C199.501 204.424 199.714 204.223 199.924 204.007V201.676C199.072 201.7 198.337 201.766 197.719 201.874C197.107 201.976 196.6 202.117 196.198 202.297C195.802 202.477 195.508 202.693 195.316 202.945C195.13 203.191 195.037 203.473 195.037 203.791C195.037 204.091 195.085 204.352 195.181 204.574C195.283 204.79 195.415 204.97 195.577 205.114C195.739 205.252 195.928 205.354 196.144 205.42C196.36 205.486 196.585 205.519 196.819 205.519ZM211.603 205.996C211.453 205.996 211.366 205.918 211.342 205.762L211.252 204.349C210.856 204.889 210.391 205.318 209.857 205.636C209.329 205.954 208.735 206.113 208.075 206.113C206.977 206.113 206.119 205.732 205.501 204.97C204.889 204.208 204.583 203.065 204.583 201.541C204.583 200.887 204.667 200.278 204.835 199.714C205.009 199.144 205.261 198.652 205.591 198.238C205.927 197.818 206.335 197.488 206.815 197.248C207.301 197.008 207.859 196.888 208.489 196.888C209.095 196.888 209.62 197.002 210.064 197.23C210.508 197.452 210.892 197.779 211.216 198.211V192.901H212.08V205.996H211.603ZM208.318 205.42C208.912 205.42 209.449 205.267 209.929 204.961C210.409 204.655 210.838 204.229 211.216 203.683V198.958C210.868 198.448 210.484 198.088 210.064 197.878C209.65 197.668 209.179 197.563 208.651 197.563C208.123 197.563 207.661 197.659 207.265 197.851C206.869 198.043 206.536 198.316 206.266 198.67C206.002 199.018 205.801 199.438 205.663 199.93C205.531 200.416 205.465 200.953 205.465 201.541C205.465 202.873 205.711 203.854 206.203 204.484C206.695 205.108 207.4 205.42 208.318 205.42Z" fill="#7BB690"/>
<path d="M155.974 185H152.646C152.273 185 151.964 184.909 151.718 184.728C151.484 184.536 151.313 184.301 151.206 184.024L149.478 179.304H139.894L138.166 184.024C138.081 184.269 137.91 184.493 137.654 184.696C137.409 184.899 137.105 185 136.742 185H133.398L142.486 161.864H146.886L155.974 185ZM140.998 176.264H148.374L145.558 168.568C145.43 168.227 145.286 167.827 145.126 167.368C144.977 166.899 144.828 166.392 144.678 165.848C144.529 166.392 144.38 166.899 144.23 167.368C144.092 167.837 143.953 168.248 143.814 168.6L140.998 176.264ZM165.365 176.856V185H161.061V161.864H168.597C170.144 161.864 171.482 162.045 172.613 162.408C173.744 162.771 174.677 163.277 175.413 163.928C176.149 164.579 176.693 165.357 177.045 166.264C177.397 167.171 177.573 168.163 177.573 169.24C177.573 170.36 177.386 171.389 177.013 172.328C176.64 173.256 176.08 174.056 175.333 174.728C174.586 175.4 173.653 175.923 172.533 176.296C171.413 176.669 170.101 176.856 168.597 176.856H165.365ZM165.365 173.496H168.597C169.386 173.496 170.074 173.4 170.661 173.208C171.248 173.005 171.733 172.723 172.117 172.36C172.501 171.987 172.789 171.539 172.981 171.016C173.173 170.483 173.269 169.891 173.269 169.24C173.269 168.621 173.173 168.061 172.981 167.56C172.789 167.059 172.501 166.632 172.117 166.28C171.733 165.928 171.248 165.661 170.661 165.48C170.074 165.288 169.386 165.192 168.597 165.192H165.365V173.496ZM187.925 176.856V185H183.621V161.864H191.157C192.704 161.864 194.042 162.045 195.173 162.408C196.304 162.771 197.237 163.277 197.973 163.928C198.709 164.579 199.253 165.357 199.605 166.264C199.957 167.171 200.133 168.163 200.133 169.24C200.133 170.36 199.946 171.389 199.573 172.328C199.2 173.256 198.64 174.056 197.893 174.728C197.146 175.4 196.213 175.923 195.093 176.296C193.973 176.669 192.661 176.856 191.157 176.856H187.925ZM187.925 173.496H191.157C191.946 173.496 192.634 173.4 193.221 173.208C193.808 173.005 194.293 172.723 194.677 172.36C195.061 171.987 195.349 171.539 195.541 171.016C195.733 170.483 195.829 169.891 195.829 169.24C195.829 168.621 195.733 168.061 195.541 167.56C195.349 167.059 195.061 166.632 194.677 166.28C194.293 165.928 193.808 165.661 193.221 165.48C192.634 165.288 191.946 165.192 191.157 165.192H187.925V173.496Z" fill="black"/>
<defs>
<radialGradient id="paint0_radial_1376_6766" cx="0" cy="0" r="1" gradientUnits="userSpaceOnUse" gradientTransform="translate(149.226 97.1476) rotate(68.4205) scale(277.002)">
<stop stop-color="#7BB690"/>
<stop offset="1" stop-color="#7BB690" stop-opacity="0"/>
</radialGradient>
<radialGradient id="paint1_radial_1376_6766" cx="0" cy="0" r="1" gradientUnits="userSpaceOnUse" gradientTransform="translate(308.822 109.767) rotate(143.661) scale(333.913 334.647)">
<stop stop-color="#7BB690"/>
<stop offset="1" stop-color="#7BB690" stop-opacity="0"/>
</radialGradient>
</defs>
</svg>
