<svg width="230" height="223" viewBox="0 0 230 223" fill="none" xmlns="http://www.w3.org/2000/svg">
<path opacity="0.8" d="M51.8302 156.387C63.4324 152.678 69.8849 140.434 66.2421 129.039C62.5993 117.643 50.2408 111.413 38.6386 115.122C27.0363 118.831 20.5839 131.075 24.2267 142.47C27.8694 153.865 40.228 160.096 51.8302 156.387Z" fill="url(#paint0_linear_1362_4884)"/>
<path opacity="0.6" d="M191.951 81.8262C206.284 126.662 180.898 174.855 135.226 189.456C89.5532 204.057 40.919 179.526 26.5858 134.69C12.2525 89.854 37.6387 41.6611 83.3112 27.0605C128.984 12.4599 177.618 36.99 191.951 81.8262Z" stroke="url(#paint1_linear_1362_4884)"/>
<path opacity="0.6" d="M167.472 89.6517C177.561 121.21 159.693 155.136 127.54 165.414C95.3866 175.693 61.1528 158.423 51.0642 126.865C40.9756 95.3065 58.8433 61.3809 90.9966 51.1021C123.15 40.8234 157.384 58.0932 167.472 89.6517Z" stroke="url(#paint2_linear_1362_4884)"/>
<path opacity="0.8" d="M116.205 213.563C131.466 208.685 139.953 192.579 135.161 177.591C130.37 162.603 114.114 154.407 98.8531 159.286C83.5921 164.164 75.105 180.27 79.8965 195.258C84.6879 210.246 100.944 218.442 116.205 213.563Z" fill="url(#paint3_linear_1362_4884)"/>
<path opacity="0.8" d="M218.414 122.696C224.463 141.618 213.751 161.965 194.464 168.131C175.177 174.297 154.648 163.936 148.599 145.015C142.55 126.093 153.263 105.746 172.55 99.5799C191.837 93.4142 212.365 103.774 218.414 122.696Z" fill="url(#paint4_linear_1362_4884)" stroke="url(#paint5_linear_1362_4884)"/>
<path d="M131.836 178.851C171.532 166.161 193.608 124.268 181.145 85.2812C168.681 46.2941 126.398 24.9761 86.702 37.6661C47.0061 50.3561 24.9297 92.2486 37.3931 131.236C49.8565 170.223 92.1399 191.541 131.836 178.851Z" fill="url(#paint6_radial_1362_4884)"/>
<defs>
<linearGradient id="paint0_linear_1362_4884" x1="38.6386" y1="115.122" x2="51.8302" y2="156.387" gradientUnits="userSpaceOnUse">
<stop stop-color="#8ABE9C"/>
<stop offset="1" stop-color="#8ABE9C" stop-opacity="0"/>
</linearGradient>
<linearGradient id="paint1_linear_1362_4884" x1="83.159" y1="26.5842" x2="135.378" y2="189.932" gradientUnits="userSpaceOnUse">
<stop stop-color="#2598D2"/>
<stop offset="1" stop-color="#2598D2" stop-opacity="0"/>
</linearGradient>
<linearGradient id="paint2_linear_1362_4884" x1="90.8443" y1="50.6259" x2="127.692" y2="165.891" gradientUnits="userSpaceOnUse">
<stop stop-color="#2598D2"/>
<stop offset="1" stop-color="#2598D2" stop-opacity="0"/>
</linearGradient>
<linearGradient id="paint3_linear_1362_4884" x1="98.8531" y1="159.286" x2="116.205" y2="213.563" gradientUnits="userSpaceOnUse">
<stop stop-color="#8ABE9C"/>
<stop offset="1" stop-color="#8ABE9C" stop-opacity="0"/>
</linearGradient>
<linearGradient id="paint4_linear_1362_4884" x1="172.397" y1="99.1036" x2="194.616" y2="168.607" gradientUnits="userSpaceOnUse">
<stop stop-color="#8ABE9C"/>
<stop offset="1" stop-color="#8ABE9C" stop-opacity="0"/>
</linearGradient>
<linearGradient id="paint5_linear_1362_4884" x1="217.699" y1="152.712" x2="155.098" y2="128.135" gradientUnits="userSpaceOnUse">
<stop stop-color="#7BB790"/>
<stop offset="1" stop-color="#7BB790" stop-opacity="0"/>
</linearGradient>
<radialGradient id="paint6_radial_1362_4884" cx="0" cy="0" r="1" gradientUnits="userSpaceOnUse" gradientTransform="translate(97.0228 60.5035) rotate(71.925) scale(170.967 174.076)">
<stop stop-color="#2598D2"/>
<stop offset="1" stop-color="#2598D2" stop-opacity="0"/>
</radialGradient>
</defs>
</svg>
