<svg width="104" height="35" viewBox="0 0 104 35" fill="none" xmlns="http://www.w3.org/2000/svg">
<path fill-rule="evenodd" clip-rule="evenodd" d="M102.124 5.43744C103.289 7.57226 103.631 10.0298 103.648 12.6307L96.4744 12.8454H96.4025C96.3658 10.9445 96.2409 9.06108 95.1834 7.57176C94.52 6.71059 93.4606 6.44188 92.4383 6.69274C90.537 7.42848 90.1785 9.49092 89.8191 11.2132C89.6143 12.5122 89.5186 13.8265 89.533 15.1413V21.1149C89.712 23.4104 89.8191 25.7425 91.0937 27.5729C91.7214 28.4331 92.6901 28.7747 93.7308 28.6126C95.4526 28.1991 96.0089 26.3171 96.2419 24.81C96.3668 24.039 96.3851 23.1962 96.4213 22.3886L103.649 22.6033C103.758 27.2502 102.179 31.8594 97.8016 33.9754C94.3049 35.6621 89.4611 35.1058 86.6089 32.4157C83.1117 29.152 81.7661 24.9537 81.138 20.4873C80.5644 14.6758 81.6943 9.187 84.8509 4.72054C87.3987 1.27637 91.3089 -0.302187 95.5235 0.522787C98.2146 0.988819 100.832 2.90847 102.125 5.43744H102.124ZM24.6718 34.1182V34.1549H16.7969L15.4519 28.0082H8.29481L7.05635 34.1549H0.617188L7.45198 1.15044H17.5867L24.6718 34.1182ZM39.0752 1.16829C43.6849 1.29422 48.1326 3.75129 50.1781 8.07448C52.4562 12.6128 52.6179 18.8547 51.4161 23.9309C50.5549 27.4108 48.313 31.0345 44.8332 32.6844C42.6998 33.7781 40.2774 34.1737 37.6944 34.1549H29.2999V1.15044L39.0757 1.16829H39.0752ZM78.5907 34.1549H70.6984L69.3524 27.9755H62.2488L60.9757 34.137L54.5187 34.1549L61.3708 1.15044H71.4872L78.5907 34.1549ZM42.8229 10.0654C44.1501 13.2399 43.8636 17.1863 43.7912 20.8635C43.5403 23.733 42.8408 27.1053 39.7199 28.1276C38.9841 28.3438 38.1681 28.4152 37.3253 28.379V6.92667C39.6748 6.69316 41.9439 7.87707 42.8229 10.0659V10.0654ZM9.62118 21.4197L11.7739 10.7645L14.0515 21.4197H9.62118ZM63.5395 21.4197L65.6932 10.7645L67.9534 21.4197H63.54H63.5395Z" fill="white"/>
</svg>
