<svg width="58" height="58" viewBox="0 0 58 58" fill="none" xmlns="http://www.w3.org/2000/svg">
<path d="M25.6099 14.0956C25.7753 13.9546 25.8567 13.773 25.8567 13.556C25.8567 13.3391 25.778 13.1656 25.618 13.0218C25.4635 12.8808 25.1869 12.8076 24.7883 12.8076H24.4141V14.2909H24.8723C25.2059 14.2909 25.4526 14.2258 25.6099 14.0929V14.0956Z" fill="white"/>
<path d="M25.252 12.0073C25.3794 11.8853 25.4445 11.7063 25.4445 11.4677C25.4445 11.2291 25.3794 11.061 25.2465 10.9417C25.1137 10.8224 24.9239 10.7627 24.6744 10.7627H24.4141V12.189H24.6473C24.9239 12.189 25.1245 12.1294 25.252 12.0073Z" fill="white"/>
<path d="M34.2814 11.5292C34.2814 11.0276 33.9397 10.7754 33.2591 10.7754H32.9961V12.3319H33.232C33.9343 12.3319 34.2841 12.0634 34.2841 11.5292H34.2814Z" fill="white"/>
<path d="M22 24.3611H24.671L23.3667 21.3701L22 24.3611Z" fill="white"/>
<path d="M29.2803 11.4326L28.5156 13.1003H30.007L29.2803 11.4326Z" fill="white"/>
<path d="M29.3367 0C13.5061 0 0.671875 12.8342 0.671875 28.6648C0.671875 44.4954 13.5061 57.3296 29.3367 57.3296C45.1672 57.3296 58.0014 44.4954 58.0014 28.6648C58.0014 12.8342 45.1672 0 29.3367 0ZM32.2571 10.0819H33.1248C33.7729 10.0819 34.242 10.2039 34.5295 10.448C34.8467 10.7191 35.0067 11.0771 35.0067 11.5218C35.0067 11.8689 34.9064 12.1671 34.7084 12.4166C34.5105 12.6661 34.2474 12.8261 33.9193 12.8966L35.4379 14.9873H34.5322L33.1302 12.9779H32.9974V14.9873H32.2571V10.0819ZM31.9534 18.3551L38.3637 25.061V18.9517H39.6897V28.277L33.2794 21.5874V27.7428H31.9534V18.3551ZM29.2933 9.77547L31.6361 14.99H30.8253L30.3101 13.7996H28.2086L27.6609 14.99H26.8636L29.2906 9.77547H29.2933ZM29.9495 18.9544V27.7455H28.6235V18.9544H29.9495ZM23.6747 10.0846H24.4123C24.7404 10.0846 25.0035 10.109 25.196 10.1605C25.3939 10.212 25.5593 10.2961 25.6949 10.4181C25.8332 10.5429 25.9417 10.7001 26.023 10.8845C26.1044 11.0744 26.1478 11.2642 26.1478 11.4567C26.1478 11.8092 26.0122 12.1048 25.7437 12.3488C26.004 12.4383 26.2101 12.5929 26.3593 12.8152C26.5111 13.0349 26.587 13.2925 26.587 13.5853C26.587 13.9677 26.4515 14.2931 26.1803 14.5588C26.0176 14.7215 25.8332 14.8354 25.6298 14.8978C25.4075 14.9601 25.1282 14.99 24.7947 14.99H23.672V10.0846H23.6747ZM18.1593 36.8458C18.1593 37.5264 18.1132 38.0308 18.0183 38.367C17.9233 38.7467 17.7634 39.0666 17.5356 39.3297C17.0909 39.8503 16.5024 40.1106 15.7703 40.1106C15.2171 40.1106 14.6992 39.9669 14.2165 39.6768L14.8646 38.5433C15.1873 38.7602 15.4883 38.8687 15.7703 38.8687C16.1662 38.8687 16.4374 38.7196 16.5892 38.4186C16.7492 38.1176 16.8278 37.5942 16.8278 36.8485V31.1595H18.1593V36.8485V36.8458ZM17.8528 27.1083C17.3105 27.6398 16.6353 27.9055 15.8327 27.9055C15.0707 27.9055 14.4389 27.6805 13.9427 27.2276C13.4518 26.7748 13.1481 26.1402 13.0261 25.3213L14.3711 25.0258C14.4308 25.541 14.5392 25.8989 14.6911 26.0969C14.9649 26.4765 15.3636 26.6663 15.8869 26.6663C16.3018 26.6663 16.6435 26.528 16.9173 26.2514C17.1912 25.9748 17.3268 25.6223 17.3268 25.1993C17.3268 25.0285 17.3024 24.8712 17.2563 24.7302C17.2075 24.5892 17.1343 24.4563 17.0339 24.337C16.9336 24.2177 16.8034 24.1065 16.6435 24.0008C16.4835 23.8977 16.2937 23.7974 16.074 23.7025L15.2253 23.35C14.0213 22.8402 13.4193 22.0972 13.4193 21.1183C13.4193 20.4566 13.6715 19.9062 14.1759 19.4615C14.6802 19.014 15.3093 18.789 16.0605 18.789C17.0746 18.789 17.8664 19.2825 18.4331 20.2695L17.3566 20.9068C17.156 20.557 16.9634 20.3292 16.7817 20.2234C16.5919 20.1014 16.3479 20.0418 16.0469 20.0418C15.6781 20.0418 15.3744 20.1475 15.1304 20.3536C14.8863 20.5597 14.767 20.8173 14.767 21.1291C14.767 21.5576 15.087 21.9047 15.7242 22.165L16.6001 22.5229C17.3132 22.8103 17.8366 23.1629 18.1647 23.5777C18.4955 23.9926 18.6609 24.5024 18.6609 25.1071C18.6609 25.9152 18.3925 26.585 17.8528 27.111V27.1083ZM24.9926 32.4041H21.4675V34.5165H24.8896V35.7639H21.4675V38.7006H24.9926V39.9479H20.1415V31.1568H24.9926V32.4041ZM21.4458 25.6115L20.4669 27.7455H19.0378L23.3873 18.4039L27.5822 27.7455H26.1315L25.2095 25.6115H21.4458ZM32.9567 39.9479L32.0347 37.8139H28.271L27.2921 39.9479H25.863L30.2125 30.6063L34.4074 39.9479H32.9567ZM43.185 40.4821L36.7747 33.7925V39.9479H35.4487V30.5602L41.859 37.2661V31.1568H43.185V40.4821ZM46.1299 20.2017H44.1151V27.7455H42.7891V20.2017H40.7689V18.9544H46.1326V20.2017H46.1299Z" fill="white"/>
<path d="M28.8281 36.5632H31.4991L30.1948 33.5723L28.8281 36.5632Z" fill="white"/>
</svg>
