<svg width="123" height="50" viewBox="0 0 123 50" fill="none" xmlns="http://www.w3.org/2000/svg">
<path d="M25.3672 35.8978L26.3101 36.8407C26.4927 37.0233 26.773 37.0445 26.9981 36.9171C28.5229 36.0465 30.4129 36.0465 31.9418 36.9171C32.1669 37.0445 32.4473 37.0233 32.6299 36.8407L33.5728 35.8978C31.1604 34.0461 27.7796 34.0461 25.3714 35.8978H25.3672Z" fill="white"/>
<path d="M21.2074 31.7358L22.078 32.6065C22.2904 32.8188 22.6217 32.8316 22.8595 32.6447C24.7453 31.188 27.0473 30.3895 29.4682 30.3895C31.8891 30.3895 34.1911 31.1837 36.0768 32.6447C36.3147 32.8273 36.6459 32.8146 36.8583 32.6065L37.729 31.7358C35.4355 29.7355 32.5389 28.6355 29.4639 28.6355C26.389 28.6355 23.4966 29.7397 21.2031 31.7358H21.2074Z" fill="white"/>
<path d="M29.4696 24.5285C33.4577 24.5285 37.2292 25.9173 40.2405 28.4613C40.4741 28.6609 40.8181 28.6524 41.0347 28.4358L41.8969 27.5737C38.4906 24.4691 34.1118 22.7703 29.4738 22.7703C24.8359 22.7703 20.457 24.4691 17.0508 27.5737L17.913 28.4358C18.1296 28.6524 18.4736 28.6609 18.7072 28.4613C21.7185 25.9173 25.49 24.5285 29.4781 24.5285H29.4696Z" fill="white"/>
<path d="M53.1545 25.7899L57.5291 36.5179C57.665 36.8534 57.992 37.0742 58.3573 37.0742H60.1921L54.1695 23.0081H52.322L46.1211 37.0742H47.9559C48.3211 37.0742 48.6482 36.8534 48.7841 36.5179L53.1545 25.7899Z" fill="white"/>
<path d="M63.1172 37.0742H65.2153V23.8999C65.2153 23.4073 64.8161 23.0081 64.3234 23.0081H63.1172V37.0742Z" fill="white"/>
<path d="M72.608 30.9755L75.8699 36.6283C76.0313 36.9044 76.3243 37.0742 76.6429 37.0742H78.7367L74.7911 30.7377C75.2583 30.674 75.6873 30.5338 76.0737 30.3257C76.507 30.0921 76.8765 29.8033 77.178 29.4593C77.4796 29.1195 77.7132 28.7331 77.8746 28.3126C78.0359 27.8921 78.1166 27.4462 78.1166 26.9918C78.1166 26.5373 78.0487 26.0914 77.917 25.62C77.7854 25.1443 77.539 24.7069 77.1993 24.3246C76.8595 23.9424 76.388 23.6239 75.8019 23.3775C75.2158 23.1312 74.4641 23.0081 73.5679 23.0081H68.5859V37.0742H70.6841V24.8725H73.037C73.398 24.8725 73.7548 24.9022 74.103 24.9574C74.4471 25.0127 74.7571 25.1188 75.0247 25.2675C75.2838 25.4119 75.5004 25.6242 75.6575 25.9003C75.8147 26.1763 75.8954 26.5416 75.8954 26.9875C75.8954 27.4335 75.8147 27.803 75.6575 28.0748C75.5004 28.3508 75.2838 28.5632 75.0247 28.7076C74.7571 28.8562 74.4471 28.9624 74.103 29.0176C73.7505 29.0728 72.9521 29.1026 72.5995 29.1026V30.967L72.608 30.9755Z" fill="white"/>
<path d="M95.0913 24.9447L95.1125 24.915V23.0081H84.898V24.0995C84.898 24.5922 85.2972 24.9914 85.7899 24.9914H92.4283L84.6814 35.1376L84.6602 35.1673V37.0742H95.2272V35.9827C95.2272 35.4901 94.8279 35.0909 94.3353 35.0909H87.3826L95.0913 24.9447Z" fill="white"/>
<path d="M98.3203 23.0081H107.482V24.0995C107.482 24.5922 107.082 24.9914 106.59 24.9914H98.3203V23.0081Z" fill="white"/>
<path d="M105.214 28.8945H98.3203V30.8779H105.214V28.8945Z" fill="white"/>
<path d="M98.3203 37.0742H107.834V35.9827C107.834 35.49 107.435 35.0908 106.942 35.0908H98.3203V37.0742Z" fill="white"/>
<path d="M120.895 23.8999V34.1947L113.433 23.059L113.399 23.0081H110.766V37.0742H112.864V25.8875L120.407 37.0275L120.441 37.0742H122.998V23.0081H121.791C121.299 23.0081 120.899 23.4073 120.899 23.8999H120.895Z" fill="white"/>
<g opacity="0.4">
<path d="M49.2845 17.2194C44.8079 21.6958 37.5452 21.6958 33.0644 17.2194C28.5879 12.743 28.5879 5.48062 33.0644 1" stroke="url(#paint0_linear_1181_3039)" stroke-miterlimit="10" stroke-linecap="round"/>
<path d="M41.1751 14.841C44.3418 14.841 46.9088 12.274 46.9088 9.10752C46.9088 5.941 44.3418 3.37402 41.1751 3.37402C38.0085 3.37402 35.4414 5.941 35.4414 9.10752C35.4414 12.274 38.0085 14.841 41.1751 14.841Z" stroke="url(#paint1_linear_1181_3039)" stroke-miterlimit="10" stroke-linecap="round"/>
<path d="M9.10872 26.3548C12.2754 26.3548 14.8424 23.7878 14.8424 20.6213C14.8424 17.4548 12.2754 14.8878 9.10872 14.8878C5.94207 14.8878 3.375 17.4548 3.375 20.6213C3.375 23.7878 5.94207 26.3548 9.10872 26.3548Z" stroke="url(#paint2_linear_1181_3039)" stroke-miterlimit="10" stroke-linecap="round"/>
<path d="M17.2188 12.5137C20.1451 15.4399 21.1601 19.5553 20.2597 23.3054" stroke="url(#paint3_linear_1181_3039)" stroke-miterlimit="10" stroke-linecap="round"/>
<path d="M16.7996 29.1281C12.2975 33.2053 5.34064 33.0736 1 28.7289" stroke="url(#paint4_linear_1181_3039)" stroke-miterlimit="10" stroke-linecap="round"/>
<path d="M34.0568 37.5754C35.6495 39.8136 35.4414 42.9394 33.4367 44.9482C31.1985 47.1864 27.5671 47.1864 25.3288 44.9482C23.2435 42.8629 23.0991 39.5715 24.8956 37.3206" stroke="url(#paint5_linear_1181_3039)" stroke-miterlimit="10" stroke-linecap="round"/>
<path d="M38.1041 33.4474C41.9563 37.9535 41.7525 44.736 37.4883 49" stroke="url(#paint6_linear_1181_3039)" stroke-miterlimit="10" stroke-linecap="round"/>
<path d="M9.10938 37.8219C15.323 37.8219 19.4683 34.4964 20.8062 33.2478" stroke="url(#paint7_linear_1181_3039)" stroke-miterlimit="10" stroke-linecap="round"/>
<path d="M26.2893 21.475C26.302 21.1905 26.3105 20.9059 26.3105 20.6214C26.3105 11.1208 18.6104 3.4209 9.10938 3.4209" stroke="url(#paint8_linear_1181_3039)" stroke-miterlimit="10" stroke-linecap="round"/>
</g>
<defs>
<linearGradient id="paint0_linear_1181_3039" x1="33.3441" y1="18.9365" x2="42.7698" y2="9.26136" gradientUnits="userSpaceOnUse">
<stop stop-color="white"/>
<stop offset="1" stop-color="white" stop-opacity="0"/>
</linearGradient>
<linearGradient id="paint1_linear_1181_3039" x1="36.3696" y1="18.0244" x2="44.28" y2="8.9483" gradientUnits="userSpaceOnUse">
<stop stop-color="white"/>
<stop offset="1" stop-color="white" stop-opacity="0"/>
</linearGradient>
<linearGradient id="paint2_linear_1181_3039" x1="11.5807" y1="23.4966" x2="3.97582" y2="15.027" gradientUnits="userSpaceOnUse">
<stop stop-color="white"/>
<stop offset="1" stop-color="white" stop-opacity="0"/>
</linearGradient>
<linearGradient id="paint3_linear_1181_3039" x1="20.3456" y1="23.4966" x2="11.1997" y2="7.7328" gradientUnits="userSpaceOnUse">
<stop stop-color="white"/>
<stop offset="1" stop-color="white" stop-opacity="0"/>
</linearGradient>
<linearGradient id="paint4_linear_1181_3039" x1="14.6034" y1="28.9688" x2="-0.813788" y2="28.9688" gradientUnits="userSpaceOnUse">
<stop stop-color="white"/>
<stop offset="1" stop-color="white" stop-opacity="0"/>
</linearGradient>
<linearGradient id="paint5_linear_1181_3039" x1="29.3811" y1="37.3206" x2="29.3811" y2="46.6269" gradientUnits="userSpaceOnUse">
<stop stop-color="white"/>
<stop offset="1" stop-color="white" stop-opacity="0"/>
</linearGradient>
<linearGradient id="paint6_linear_1181_3039" x1="37.8803" y1="36.569" x2="39.1824" y2="48.9985" gradientUnits="userSpaceOnUse">
<stop stop-color="white"/>
<stop offset="1" stop-color="white" stop-opacity="0"/>
</linearGradient>
<linearGradient id="paint7_linear_1181_3039" x1="20.3487" y1="34.137" x2="10.3472" y2="39.5617" gradientUnits="userSpaceOnUse">
<stop stop-color="white"/>
<stop offset="1" stop-color="white" stop-opacity="0"/>
</linearGradient>
<linearGradient id="paint8_linear_1181_3039" x1="25.4878" y1="21.0646" x2="9.36744" y2="3.52274" gradientUnits="userSpaceOnUse">
<stop stop-color="white"/>
<stop offset="1" stop-color="white" stop-opacity="0"/>
</linearGradient>
</defs>
</svg>
