<svg width="41" height="54" viewBox="0 0 41 54" fill="none" xmlns="http://www.w3.org/2000/svg">
<path d="M13.8635 7.60709C13.8635 6.67761 14.0423 5.80942 14.3895 4.9923C14.7419 4.18029 15.2271 3.46531 15.8348 2.85757C16.4477 2.25495 17.1626 1.77489 17.9849 1.42251C18.802 1.07012 19.6804 0.896484 20.6048 0.896484C21.5291 0.896484 22.4075 1.07012 23.2246 1.42251C24.0367 1.76978 24.7516 2.24984 25.3543 2.85757C25.962 3.46531 26.437 4.18029 26.7944 4.9923C27.1417 5.80942 27.3205 6.68272 27.3205 7.60709C27.3205 8.53146 27.1417 9.40986 26.7944 10.227C26.4421 11.039 25.9671 11.754 25.3543 12.3566C24.7516 12.9643 24.0367 13.4393 23.2246 13.7968C22.4075 14.1441 21.5342 14.3228 20.6048 14.3228C19.6753 14.3228 18.802 14.1441 17.9849 13.7968C17.1626 13.4444 16.4477 12.9694 15.8348 12.3566C15.2271 11.754 14.7419 11.039 14.3895 10.227C14.0423 9.40986 13.8635 8.53146 13.8635 7.60709ZM7.13248 53.3863C6.203 53.3863 5.33481 53.2126 4.51769 52.8603C3.70057 52.513 2.9907 52.0329 2.38296 51.4252C1.78034 50.8175 1.30028 50.1076 0.947896 49.2905C0.595513 48.4733 0.421875 47.6 0.421875 46.6757V43.9894H31.3754V39.9446H0.421875V25.119C0.421875 24.1895 0.595513 23.3162 0.947896 22.5042C1.29517 21.6871 1.77523 20.9772 2.38296 20.3695C2.9907 19.7669 3.70057 19.2868 4.51769 18.9344C5.33481 18.582 6.20811 18.4084 7.13248 18.4084H34.1128C35.0423 18.4084 35.9155 18.582 36.7327 18.9344C37.5549 19.2817 38.2699 19.7618 38.8725 20.3695C39.4751 20.9772 39.9552 21.6871 40.3127 22.5042C40.6651 23.3162 40.8387 24.1946 40.8387 25.119V27.8053H9.81876V31.8296H40.8387V46.6706C40.8387 47.6 40.6651 48.4682 40.3127 49.2853C39.9603 50.1025 39.4853 50.8123 38.8725 51.4201C38.2699 52.0227 37.5549 52.5028 36.7327 52.8551C35.9155 53.2075 35.0371 53.3812 34.1128 53.3812H7.13248V53.3863Z" fill="white"/>
</svg>
