<svg width="65" height="44" viewBox="0 0 65 44" fill="none" xmlns="http://www.w3.org/2000/svg">
<path d="M39.8013 36.085C39.134 39.5896 38.5679 42.5647 38.3488 43.7215H64.3157V36.085H39.8013ZM0.00390625 36.1539V43.7904H25.7874L24.0668 36.1539H0.00390625Z" fill="white"/>
<path d="M12.6693 18.6456L10.793 10.7466H26.8034L31.9885 33.4225H32.2099L35.4764 18.8969C37.1225 12.3015 37.7443 10.7466 47.0213 10.7466H53.6935C53.6935 10.7466 52.3455 16.826 50.6682 23.4237C50.0298 25.9406 44.4587 25.6425 44.7368 23.2924C44.7657 23.0477 45.0293 21.2782 45.2384 20.0203C45.542 18.2096 43.4299 17.9827 43.0495 19.7756C42.7793 21.0591 41.5547 27.4321 40.4125 33.4236H64.314V0.862305H0V33.4214H23.3399L20.0144 18.6556L12.6693 18.6445V18.6456Z" fill="white"/>
</svg>
