<svg width="467" height="452" viewBox="0 0 467 452" fill="none" xmlns="http://www.w3.org/2000/svg">
<path d="M35.4478 0H431.552C451.129 0 467 15.9132 467 35.4817V218.277C467 347.259 362.386 452 233.5 452C104.614 452 0 347.286 0 218.277V35.4817C0 15.9132 15.898 0 35.4478 0Z" fill="#060606"/>
<path opacity="0.4" d="M35.4478 0H431.552C451.129 0 467 15.9132 467 35.4817V218.277C467 347.259 362.386 452 233.5 452C104.614 452 0 347.286 0 218.277V35.4817C0 15.9132 15.898 0 35.4478 0Z" fill="url(#paint0_linear_2342_3649)"/>
<g opacity="0.4">
<path d="M233.501 434.823C113.758 434.823 16.3105 337.31 16.3105 217.425V34.8496C16.3105 23.4163 25.5912 14.1267 37.0136 14.1267H429.96C441.383 14.1267 450.663 23.4163 450.663 34.8496V217.425C450.663 337.282 353.244 434.823 233.473 434.823H233.501ZM37.0136 16.8751C27.1014 16.8751 19.0563 24.9554 19.0563 34.8496V217.425C19.0563 335.771 115.241 432.074 233.501 432.074C351.761 432.074 447.945 335.771 447.945 217.425V34.8496C447.945 24.9279 439.873 16.8751 429.988 16.8751H37.0136Z" fill="url(#paint1_linear_2342_3649)"/>
</g>
<path d="M177.843 332.226C177.843 332.226 178.036 332.363 178.146 332.5L195.142 355.257C195.114 354.872 195.087 354.515 195.087 354.185V332.143H196.762V358.418H195.856C195.581 358.418 195.334 358.308 195.169 358.06L178.091 335.249C178.118 335.606 178.146 335.963 178.146 336.293V358.418H176.498V332.143H177.432C177.596 332.143 177.734 332.143 177.843 332.198V332.226Z" fill="white"/>
<path d="M230.948 345.28C230.948 347.314 230.645 349.156 230.041 350.805C229.437 352.454 228.586 353.883 227.488 355.037C226.39 356.219 225.072 357.098 223.534 357.758C221.996 358.39 220.294 358.72 218.427 358.72C216.56 358.72 214.885 358.39 213.375 357.758C211.837 357.126 210.519 356.219 209.421 355.037C208.322 353.883 207.471 352.454 206.84 350.805C206.236 349.156 205.934 347.314 205.934 345.28C205.934 343.246 206.236 341.433 206.84 339.784C207.444 338.134 208.295 336.733 209.421 335.551C210.546 334.369 211.837 333.462 213.375 332.83C214.912 332.198 216.587 331.868 218.427 331.868C220.267 331.868 221.996 332.198 223.534 332.83C225.072 333.462 226.39 334.369 227.488 335.551C228.586 336.733 229.437 338.134 230.041 339.784C230.645 341.433 230.948 343.274 230.948 345.28ZM228.971 345.28C228.971 343.439 228.723 341.79 228.202 340.333C227.708 338.877 226.994 337.64 226.06 336.623C225.127 335.606 224.028 334.836 222.738 334.287C221.447 333.737 219.992 333.49 218.427 333.49C216.862 333.49 215.434 333.765 214.143 334.287C212.853 334.836 211.727 335.606 210.794 336.623C209.86 337.64 209.146 338.877 208.624 340.333C208.103 341.79 207.856 343.439 207.856 345.28C207.856 347.122 208.103 348.771 208.624 350.227C209.146 351.684 209.86 352.921 210.794 353.938C211.727 354.955 212.853 355.724 214.143 356.246C215.434 356.769 216.862 357.043 218.427 357.043C219.992 357.043 221.447 356.769 222.738 356.246C224.028 355.724 225.154 354.927 226.06 353.938C226.994 352.921 227.708 351.684 228.202 350.227C228.696 348.771 228.971 347.122 228.971 345.28Z" fill="white"/>
<path d="M262.166 345.28C262.166 347.314 261.864 349.128 261.26 350.75C260.656 352.371 259.805 353.745 258.706 354.9C257.608 356.054 256.29 356.906 254.752 357.511C253.215 358.115 251.512 358.418 249.645 358.418H240.062V332.143H249.645C251.512 332.143 253.215 332.445 254.752 333.05C256.29 333.655 257.608 334.534 258.706 335.661C259.805 336.788 260.656 338.19 261.26 339.811C261.864 341.433 262.166 343.247 262.166 345.28ZM260.189 345.28C260.189 343.439 259.942 341.817 259.42 340.388C258.898 338.959 258.185 337.75 257.278 336.76C256.345 335.771 255.247 335.029 253.956 334.507C252.666 333.984 251.21 333.737 249.645 333.737H241.985V356.934H249.645C251.238 356.934 252.666 356.686 253.956 356.164C255.247 355.642 256.372 354.9 257.278 353.91C258.185 352.921 258.926 351.712 259.42 350.282C259.914 348.853 260.189 347.204 260.189 345.363V345.28Z" fill="white"/>
<path d="M286.987 332.143V333.71H273.176V344.346H284.681V345.885H273.176V356.851H286.987V358.418H271.254V332.143H286.987Z" fill="white"/>
<path d="M197.037 89.9548C206.016 93.885 214.143 99.4367 221.145 106.445L221.255 106.555C227.735 113.041 232.952 120.544 236.796 128.68H236.713C238.773 133.05 240.42 137.584 241.656 142.202H241.766C242.315 144.208 242.782 146.269 243.166 148.358C244.017 153.058 244.457 157.867 244.457 162.622C244.457 162.815 244.457 163.034 244.457 163.227H244.594C244.841 163.859 245.445 164.326 246.186 164.326C246.9 164.326 247.504 163.886 247.751 163.254H247.889C247.889 163.034 247.889 162.842 247.889 162.622C247.889 157.648 247.422 152.646 246.543 147.753C243.523 131.181 235.615 116.092 223.671 104.136L223.561 104.027C216.258 96.7433 207.801 90.9442 198.41 86.8491C197.559 86.4643 196.543 86.8491 196.159 87.7286C195.774 88.5806 196.159 89.5975 197.037 89.9823V89.9548Z" fill="#669AB4"/>
<path d="M165.186 225.148C181.605 225.148 197.119 218.826 208.843 207.311C209.53 206.651 209.53 205.579 208.843 204.892C208.185 204.205 207.114 204.205 206.427 204.892C195.334 215.776 180.672 221.74 165.158 221.74C165.103 221.74 165.049 221.74 164.994 221.74C149.288 221.685 134.516 215.556 123.395 204.425L123.313 204.342C122.654 203.683 121.556 203.683 120.897 204.342C120.238 205.002 120.238 206.101 120.897 206.761L121.006 206.871C132.758 218.634 148.382 225.12 164.994 225.175C165.049 225.175 165.103 225.175 165.158 225.175L165.186 225.148Z" fill="#7BB690"/>
<path d="M164.993 103.559C164.993 103.559 165.103 103.559 165.158 103.559C180.864 103.559 195.664 109.661 206.811 120.764L206.921 120.846C218.069 132.005 224.192 146.819 224.22 162.595C224.22 162.897 224.22 163.199 224.22 163.501C224.22 164.436 224.961 165.233 225.894 165.233C226.828 165.233 227.597 164.491 227.597 163.556C227.597 163.227 227.597 162.924 227.597 162.595C227.597 145.912 221.089 130.218 209.31 118.428L209.2 118.318C197.366 106.527 181.66 100.069 164.993 100.124C164.06 100.124 163.291 100.893 163.291 101.828C163.291 102.762 164.06 103.532 164.993 103.532V103.559Z" fill="#669AB4"/>
<path d="M343.359 167.514C342.7 166.855 341.601 166.855 340.942 167.514C329.794 178.618 315.022 184.719 299.289 184.719C299.234 184.719 299.179 184.719 299.124 184.719C298.191 184.719 297.422 185.489 297.422 186.423C297.422 187.358 298.191 188.127 299.124 188.127C299.179 188.127 299.234 188.127 299.289 188.127C315.901 188.127 331.552 181.668 343.331 169.933C343.99 169.273 343.99 168.174 343.331 167.514H343.359Z" fill="#669AB4"/>
<path d="M135.229 192.415L135.338 192.524C143.274 200.467 153.79 204.837 165.02 204.892C165.075 204.892 165.13 204.892 165.185 204.892C176.388 204.892 186.959 200.55 194.894 192.634L195.004 192.524C195.69 191.837 196.349 191.123 197.008 190.381C197.64 189.666 197.557 188.594 196.844 187.962C196.13 187.33 195.059 187.412 194.427 188.127C193.851 188.787 193.219 189.474 192.588 190.106L192.478 190.216C185.174 197.499 175.454 201.484 165.157 201.484C165.102 201.484 165.048 201.484 164.993 201.484C154.696 201.429 145.003 197.417 137.727 190.106L137.645 190.023C130.369 182.685 126.36 172.956 126.387 162.622C126.387 161.688 125.618 160.918 124.685 160.918C123.751 160.918 122.982 161.688 122.982 162.622C122.982 173.863 127.321 184.444 135.229 192.415Z" fill="#669AB4"/>
<path d="M195.005 132.775L194.895 132.665C194.236 132.005 193.138 132.005 192.479 132.665C191.82 133.324 191.82 134.424 192.479 135.083L192.561 135.166C199.865 142.476 203.901 152.233 203.928 162.595C203.928 165.041 203.709 167.514 203.242 169.905C203.077 170.84 203.681 171.719 204.587 171.912C204.697 171.912 204.807 171.939 204.917 171.939C205.713 171.939 206.427 171.362 206.592 170.537C207.086 167.926 207.333 165.233 207.333 162.567C207.333 151.299 202.94 140.717 194.977 132.747L195.005 132.775Z" fill="#669AB4"/>
<path d="M149.534 178.096C149.561 178.123 149.589 178.178 149.644 178.205C153.735 182.301 159.199 184.582 164.993 184.637C165.048 184.637 165.103 184.637 165.185 184.637C170.978 184.637 176.443 182.41 180.589 178.315C180.589 178.315 180.671 178.233 180.698 178.205C184.845 174.055 187.151 168.504 187.124 162.622C187.124 156.768 184.817 151.271 180.698 147.121C180.671 147.094 180.644 147.066 180.589 147.011C176.443 142.944 170.978 140.69 165.185 140.69C165.13 140.69 165.075 140.69 164.993 140.69C164.059 140.69 163.29 141.459 163.29 142.421C163.29 142.889 163.483 143.301 163.785 143.631C164.087 143.933 164.526 144.125 164.993 144.125C164.993 144.125 165.103 144.125 165.157 144.125C170.072 144.125 174.685 146.022 178.172 149.457C178.172 149.457 178.227 149.512 178.255 149.54C181.742 153.03 183.664 157.675 183.691 162.622C183.691 167.597 181.769 172.269 178.255 175.787C178.255 175.787 178.2 175.869 178.172 175.897C174.658 179.36 169.99 181.256 165.02 181.229C160.133 181.201 155.52 179.25 152.06 175.787C152.06 175.787 152.005 175.732 151.978 175.704C148.518 172.214 146.624 167.569 146.624 162.65C146.624 161.715 145.855 160.946 144.921 160.946C143.988 160.946 143.219 161.715 143.219 162.65C143.219 168.476 145.443 173.973 149.534 178.123V178.096Z" fill="#7BB690"/>
<path d="M280.947 189.859C280.316 189.254 279.684 188.622 279.053 188.045C278.366 187.413 277.268 187.468 276.637 188.155C276.005 188.842 276.06 189.941 276.746 190.573C277.35 191.123 277.955 191.7 278.531 192.277L278.641 192.387C287.4 201.155 293.111 212.258 295.143 224.461C295.28 225.285 295.994 225.89 296.818 225.89C296.9 225.89 297.01 225.89 297.093 225.89C298.026 225.725 298.658 224.846 298.493 223.939C296.351 211.021 290.31 199.286 281.057 189.996L280.947 189.886V189.859Z" fill="#669AB4"/>
<path d="M276.114 225.863C276.251 225.863 276.389 225.863 276.526 225.808C277.432 225.588 277.981 224.653 277.762 223.746C275.977 216.683 272.353 210.169 267.3 204.892C266.641 204.205 265.57 204.178 264.884 204.837C264.198 205.497 264.17 206.569 264.829 207.256C269.469 212.093 272.819 218.085 274.439 224.571C274.631 225.34 275.318 225.863 276.087 225.863H276.114Z" fill="#7BB690"/>
<path d="M269.36 155.366L269.469 155.476C277.405 163.419 287.921 167.789 299.151 167.844C299.206 167.844 299.261 167.844 299.316 167.844C310.519 167.844 321.09 163.502 329.025 155.586L329.135 155.476C337.125 147.478 341.518 136.87 341.491 125.574C341.491 124.639 340.722 123.87 339.788 123.87C338.855 123.87 338.086 124.639 338.086 125.574C338.086 135.963 334.05 145.719 326.719 153.058L326.609 153.168C319.305 160.451 309.585 164.436 299.288 164.436C299.233 164.436 299.179 164.436 299.124 164.436C288.827 164.409 279.134 160.368 271.858 153.058L271.748 152.948C264.472 145.61 260.463 135.88 260.491 125.546C260.491 115.267 264.5 105.566 271.721 98.2548L271.858 98.1174C279.134 90.8342 288.827 86.794 299.124 86.7391C300.057 86.7391 300.826 85.9695 300.826 85.0351C300.826 84.1006 300.057 83.3311 299.124 83.3311C287.921 83.386 277.377 87.756 269.442 95.6988L269.305 95.8362C261.424 103.779 257.086 114.333 257.086 125.519C257.086 136.76 261.424 147.341 269.332 155.311L269.36 155.366Z" fill="#669AB4"/>
<path d="M286.193 138.739C286.193 138.739 286.138 138.684 286.11 138.656C282.651 135.166 280.756 130.521 280.784 125.601C280.784 120.709 282.678 116.119 286.11 112.629C286.769 111.969 286.769 110.87 286.11 110.21C285.451 109.551 284.353 109.551 283.694 110.21C279.658 114.333 277.406 119.775 277.406 125.574C277.406 131.4 279.63 136.897 283.722 141.047C283.749 141.075 283.776 141.102 283.804 141.157C287.895 145.252 293.359 147.533 299.153 147.588C299.208 147.588 299.263 147.588 299.345 147.588C305.138 147.588 310.603 145.362 314.749 141.267C315.408 140.607 315.435 139.536 314.749 138.849C314.09 138.189 313.019 138.161 312.332 138.849C308.79 142.311 304.123 144.208 299.18 144.18C294.293 144.153 289.68 142.202 286.22 138.739H286.193Z" fill="#7BB690"/>
<path d="M371.805 167.872C371.009 167.377 369.966 167.624 369.472 168.421C358.406 186.478 340.943 199.176 320.35 204.123H320.212C315.737 205.222 311.179 205.909 306.621 206.184C305.687 206.239 304.973 207.064 305.028 207.998C305.083 208.905 305.825 209.592 306.731 209.592C306.758 209.592 306.813 209.592 306.841 209.592C311.591 209.29 316.341 208.575 321.009 207.476H321.146V207.448C342.618 202.282 360.822 189.034 372.382 170.208C372.876 169.411 372.629 168.366 371.833 167.872H371.805Z" fill="#669AB4"/>
<path d="M244.539 219.376C246.434 220.393 248.795 219.899 250.058 218.112L252.337 214.896C247.999 211.296 242.59 209.345 236.879 209.345C231.167 209.345 225.758 211.296 221.42 214.896L223.699 218.112C224.962 219.871 227.323 220.393 229.218 219.376C231.552 218.112 234.16 217.452 236.906 217.452C239.652 217.452 242.26 218.112 244.594 219.376H244.539Z" fill="white"/>
<path d="M209.666 198.351L211.918 201.539C213.236 203.38 215.734 203.848 217.656 202.666C223.368 199.12 229.957 197.197 236.849 197.197C243.741 197.197 250.331 199.093 256.042 202.666C257.964 203.875 260.49 203.408 261.781 201.539L264.032 198.351C256.262 192.332 246.816 189.089 236.822 189.089C226.827 189.089 217.382 192.359 209.611 198.351H209.666Z" fill="white"/>
<path d="M205.934 186.094C215.049 180.13 225.703 176.914 236.851 176.914C247.999 176.914 258.652 180.13 267.768 186.094C269.663 187.33 272.216 186.808 273.507 184.967L275.758 181.806C264.583 173.368 251.074 168.806 236.851 168.806C222.628 168.806 209.091 173.368 197.943 181.806L200.195 184.967C201.513 186.808 204.039 187.33 205.934 186.094Z" fill="white"/>
<path d="M154.476 236.334L138.523 272.613H143.246C144.18 272.613 145.031 272.036 145.388 271.184L156.645 243.535L167.903 271.184C168.26 272.063 169.111 272.613 170.045 272.613H174.768L159.254 236.334H154.504H154.476Z" fill="white"/>
<path d="M184.269 236.334H181.166V272.613H186.575V238.643C186.575 237.378 185.532 236.334 184.269 236.334Z" fill="white"/>
<path d="M214.006 255.188C215.104 254.583 216.065 253.841 216.861 252.962C217.63 252.082 218.234 251.093 218.646 249.993C219.058 248.894 219.278 247.767 219.278 246.585C219.278 245.404 219.113 244.277 218.756 243.068C218.399 241.831 217.795 240.704 216.916 239.742C216.038 238.753 214.829 237.928 213.319 237.296C211.809 236.664 209.887 236.334 207.553 236.334H194.73V272.613H200.14V241.144H206.208C207.141 241.144 208.047 241.226 208.954 241.364C209.832 241.501 210.628 241.776 211.315 242.161C211.974 242.545 212.523 243.095 212.935 243.782C213.347 244.497 213.539 245.431 213.539 246.585C213.539 247.74 213.319 248.674 212.935 249.389C212.523 250.103 211.974 250.653 211.315 251.01C210.628 251.395 209.832 251.67 208.954 251.807C208.047 251.945 205.988 252.027 205.082 252.027V256.837L213.484 271.403C213.896 272.118 214.665 272.558 215.488 272.558H220.898L210.738 256.205C211.946 256.04 213.045 255.683 214.033 255.133L214.006 255.188Z" fill="white"/>
<path d="M261.013 267.473H243.111L262.963 241.308L263.018 241.226V236.306H236.713V239.109C236.713 240.374 237.757 241.418 239.02 241.418H256.126L236.192 267.583L236.137 267.665V272.585H263.347V269.782C263.347 268.517 262.304 267.473 261.041 267.473H261.013Z" fill="white"/>
<path d="M294.869 239.137V236.334H271.283V241.446H292.563C293.826 241.446 294.869 240.429 294.869 239.137Z" fill="white"/>
<path d="M289.048 251.505H271.283V256.617H289.048V251.505Z" fill="white"/>
<path d="M293.496 267.473H271.283V272.585H295.775V269.782C295.775 268.518 294.759 267.473 293.469 267.473H293.496Z" fill="white"/>
<path d="M329.438 238.615V265.164L310.218 236.444L310.136 236.306H303.354V272.585H308.763V243.754L328.175 272.475L328.258 272.612H334.847V236.334H331.745C330.482 236.334 329.438 237.378 329.438 238.642V238.615Z" fill="white"/>
<path d="M177.843 332.226C177.843 332.226 178.036 332.363 178.146 332.5L195.142 355.257C195.114 354.872 195.087 354.515 195.087 354.185V332.143H196.762V358.418H195.856C195.581 358.418 195.334 358.308 195.169 358.06L178.091 335.249C178.118 335.606 178.146 335.963 178.146 336.293V358.418H176.498V332.143H177.432C177.596 332.143 177.734 332.143 177.843 332.198V332.226Z" fill="#C4007A"/>
<path d="M230.948 345.28C230.948 347.314 230.645 349.156 230.041 350.805C229.437 352.454 228.586 353.883 227.488 355.037C226.39 356.219 225.072 357.098 223.534 357.758C221.996 358.39 220.294 358.72 218.427 358.72C216.56 358.72 214.885 358.39 213.375 357.758C211.837 357.126 210.519 356.219 209.421 355.037C208.322 353.883 207.471 352.454 206.84 350.805C206.236 349.156 205.934 347.314 205.934 345.28C205.934 343.246 206.236 341.433 206.84 339.784C207.444 338.134 208.295 336.733 209.421 335.551C210.546 334.369 211.837 333.462 213.375 332.83C214.912 332.198 216.587 331.868 218.427 331.868C220.267 331.868 221.996 332.198 223.534 332.83C225.072 333.462 226.39 334.369 227.488 335.551C228.586 336.733 229.437 338.134 230.041 339.784C230.645 341.433 230.948 343.274 230.948 345.28ZM228.971 345.28C228.971 343.439 228.723 341.79 228.202 340.333C227.708 338.877 226.994 337.64 226.06 336.623C225.127 335.606 224.028 334.836 222.738 334.287C221.447 333.737 219.992 333.49 218.427 333.49C216.862 333.49 215.434 333.765 214.143 334.287C212.853 334.836 211.727 335.606 210.794 336.623C209.86 337.64 209.146 338.877 208.624 340.333C208.103 341.79 207.856 343.439 207.856 345.28C207.856 347.122 208.103 348.771 208.624 350.227C209.146 351.684 209.86 352.921 210.794 353.938C211.727 354.955 212.853 355.724 214.143 356.246C215.434 356.769 216.862 357.043 218.427 357.043C219.992 357.043 221.447 356.769 222.738 356.246C224.028 355.724 225.154 354.927 226.06 353.938C226.994 352.921 227.708 351.684 228.202 350.227C228.696 348.771 228.971 347.122 228.971 345.28Z" fill="#C4007A"/>
<path d="M262.166 345.28C262.166 347.314 261.864 349.128 261.26 350.75C260.656 352.371 259.805 353.745 258.706 354.9C257.608 356.054 256.29 356.906 254.752 357.511C253.215 358.115 251.512 358.418 249.645 358.418H240.062V332.143H249.645C251.512 332.143 253.215 332.445 254.752 333.05C256.29 333.655 257.608 334.534 258.706 335.661C259.805 336.788 260.656 338.19 261.26 339.811C261.864 341.433 262.166 343.247 262.166 345.28ZM260.189 345.28C260.189 343.439 259.942 341.817 259.42 340.388C258.898 338.959 258.185 337.75 257.278 336.76C256.345 335.771 255.247 335.029 253.956 334.507C252.666 333.984 251.21 333.737 249.645 333.737H241.985V356.934H249.645C251.238 356.934 252.666 356.686 253.956 356.164C255.247 355.642 256.372 354.9 257.278 353.91C258.185 352.921 258.926 351.712 259.42 350.282C259.914 348.853 260.189 347.204 260.189 345.363V345.28Z" fill="#C4007A"/>
<path d="M286.987 332.143V333.71H273.176V344.346H284.681V345.885H273.176V356.851H286.987V358.418H271.254V332.143H286.987Z" fill="#C4007A"/>
<path d="M233.501 434.823C113.758 434.823 16.3105 337.31 16.3105 217.425V34.8496C16.3105 23.4163 25.5912 14.1267 37.0136 14.1267H429.96C441.383 14.1267 450.663 23.4163 450.663 34.8496V217.425C450.663 337.282 353.244 434.823 233.473 434.823H233.501ZM37.0136 16.8751C27.1014 16.8751 19.0563 24.9554 19.0563 34.8496V217.425C19.0563 335.771 115.241 432.074 233.501 432.074C351.761 432.074 447.945 335.771 447.945 217.425V34.8496C447.945 24.9279 439.873 16.8751 429.988 16.8751H37.0136Z" fill="#C4007A"/>
<path d="M165.186 225.148C181.605 225.148 197.119 218.826 208.843 207.311C209.53 206.651 209.53 205.579 208.843 204.892C208.185 204.205 207.114 204.205 206.427 204.892C195.334 215.776 180.672 221.74 165.158 221.74C165.103 221.74 165.049 221.74 164.994 221.74C149.288 221.685 134.516 215.556 123.395 204.425L123.313 204.342C122.654 203.683 121.556 203.683 120.897 204.342C120.238 205.002 120.238 206.101 120.897 206.761L121.006 206.871C132.758 218.634 148.382 225.12 164.994 225.175C165.049 225.175 165.103 225.175 165.158 225.175L165.186 225.148Z" fill="#C4007A"/>
<path d="M164.993 103.559C164.993 103.559 165.103 103.559 165.158 103.559C180.864 103.559 195.664 109.661 206.811 120.764L206.921 120.846C218.069 132.005 224.192 146.819 224.22 162.595C224.22 162.897 224.22 163.199 224.22 163.501C224.22 164.436 224.961 165.233 225.894 165.233C226.828 165.233 227.597 164.491 227.597 163.556C227.597 163.227 227.597 162.924 227.597 162.595C227.597 145.912 221.089 130.218 209.31 118.428L209.2 118.318C197.366 106.527 181.66 100.069 164.993 100.124C164.06 100.124 163.291 100.893 163.291 101.828C163.291 102.762 164.06 103.532 164.993 103.532V103.559Z" fill="#C4007A"/>
<path d="M343.359 167.514C342.7 166.855 341.601 166.855 340.942 167.514C329.794 178.618 315.022 184.719 299.289 184.719C299.234 184.719 299.179 184.719 299.124 184.719C298.191 184.719 297.422 185.489 297.422 186.423C297.422 187.358 298.191 188.127 299.124 188.127C299.179 188.127 299.234 188.127 299.289 188.127C315.901 188.127 331.552 181.668 343.331 169.933C343.99 169.273 343.99 168.174 343.331 167.514H343.359Z" fill="#C4007A"/>
<path d="M149.534 178.096C149.561 178.123 149.589 178.178 149.644 178.205C153.735 182.301 159.199 184.582 164.993 184.637C165.048 184.637 165.103 184.637 165.185 184.637C170.978 184.637 176.443 182.41 180.589 178.315C180.589 178.315 180.671 178.233 180.698 178.205C184.845 174.055 187.151 168.504 187.124 162.622C187.124 156.768 184.817 151.271 180.698 147.121C180.671 147.094 180.644 147.066 180.589 147.011C176.443 142.944 170.978 140.69 165.185 140.69C165.13 140.69 165.075 140.69 164.993 140.69C164.059 140.69 163.29 141.459 163.29 142.421C163.29 142.889 163.483 143.301 163.785 143.631C164.087 143.933 164.526 144.125 164.993 144.125C164.993 144.125 165.103 144.125 165.157 144.125C170.072 144.125 174.685 146.022 178.172 149.457C178.172 149.457 178.227 149.512 178.255 149.54C181.742 153.03 183.664 157.675 183.691 162.622C183.691 167.597 181.769 172.269 178.255 175.787C178.255 175.787 178.2 175.869 178.172 175.897C174.658 179.36 169.99 181.256 165.02 181.229C160.133 181.201 155.52 179.25 152.06 175.787C152.06 175.787 152.005 175.732 151.978 175.704C148.518 172.214 146.624 167.569 146.624 162.65C146.624 161.715 145.855 160.946 144.921 160.946C143.988 160.946 143.219 161.715 143.219 162.65C143.219 168.476 145.443 173.973 149.534 178.123V178.096Z" fill="#C4007A"/>
<path d="M280.947 189.859C280.316 189.254 279.684 188.622 279.053 188.045C278.366 187.413 277.268 187.468 276.637 188.155C276.005 188.842 276.06 189.941 276.746 190.573C277.35 191.123 277.955 191.7 278.531 192.277L278.641 192.387C287.4 201.155 293.111 212.258 295.143 224.461C295.28 225.285 295.994 225.89 296.818 225.89C296.9 225.89 297.01 225.89 297.093 225.89C298.026 225.725 298.658 224.846 298.493 223.939C296.351 211.021 290.31 199.286 281.057 189.996L280.947 189.886V189.859Z" fill="#C4007A"/>
<path d="M269.36 155.366L269.469 155.476C277.405 163.419 287.921 167.789 299.151 167.844C299.206 167.844 299.261 167.844 299.316 167.844C310.519 167.844 321.09 163.502 329.025 155.586L329.135 155.476C337.125 147.478 341.518 136.87 341.491 125.574C341.491 124.639 340.722 123.87 339.788 123.87C338.855 123.87 338.086 124.639 338.086 125.574C338.086 135.963 334.05 145.719 326.719 153.058L326.609 153.168C319.305 160.451 309.585 164.436 299.288 164.436C299.233 164.436 299.179 164.436 299.124 164.436C288.827 164.409 279.134 160.368 271.858 153.058L271.748 152.948C264.472 145.61 260.463 135.88 260.491 125.546C260.491 115.267 264.5 105.566 271.721 98.2548L271.858 98.1174C279.134 90.8342 288.827 86.794 299.124 86.7391C300.057 86.7391 300.826 85.9695 300.826 85.0351C300.826 84.1006 300.057 83.3311 299.124 83.3311C287.921 83.386 277.377 87.756 269.442 95.6988L269.305 95.8362C261.424 103.779 257.086 114.333 257.086 125.519C257.086 136.76 261.424 147.341 269.332 155.311L269.36 155.366Z" fill="#C4007A"/>
<path d="M244.539 219.376C246.434 220.393 248.795 219.899 250.058 218.112L252.337 214.896C247.999 211.296 242.59 209.345 236.879 209.345C231.167 209.345 225.758 211.296 221.42 214.896L223.699 218.112C224.962 219.871 227.323 220.393 229.218 219.376C231.552 218.112 234.16 217.452 236.906 217.452C239.652 217.452 242.26 218.112 244.594 219.376H244.539Z" fill="#C4007A"/>
<path d="M209.666 198.351L211.918 201.539C213.236 203.38 215.734 203.848 217.656 202.666C223.368 199.12 229.957 197.197 236.849 197.197C243.741 197.197 250.331 199.093 256.042 202.666C257.964 203.875 260.49 203.408 261.781 201.539L264.032 198.351C256.262 192.332 246.816 189.089 236.822 189.089C226.827 189.089 217.382 192.359 209.611 198.351H209.666Z" fill="#C4007A"/>
<path d="M205.934 186.094C215.049 180.13 225.703 176.914 236.851 176.914C247.999 176.914 258.652 180.13 267.768 186.094C269.663 187.33 272.216 186.808 273.507 184.967L275.758 181.806C264.583 173.368 251.074 168.806 236.851 168.806C222.628 168.806 209.091 173.368 197.943 181.806L200.195 184.967C201.513 186.808 204.039 187.33 205.934 186.094Z" fill="#C4007A"/>
<path d="M154.476 236.334L138.523 272.613H143.246C144.18 272.613 145.031 272.036 145.388 271.184L156.645 243.535L167.903 271.184C168.26 272.063 169.111 272.613 170.045 272.613H174.768L159.254 236.334H154.504H154.476Z" fill="#C4007A"/>
<path d="M184.269 236.334H181.166V272.613H186.575V238.643C186.575 237.378 185.532 236.334 184.269 236.334Z" fill="#C4007A"/>
<path d="M214.006 255.188C215.104 254.583 216.065 253.841 216.861 252.962C217.63 252.082 218.234 251.093 218.646 249.993C219.058 248.894 219.278 247.767 219.278 246.585C219.278 245.404 219.113 244.277 218.756 243.068C218.399 241.831 217.795 240.704 216.916 239.742C216.038 238.753 214.829 237.928 213.319 237.296C211.809 236.664 209.887 236.334 207.553 236.334H194.73V272.613H200.14V241.144H206.208C207.141 241.144 208.047 241.226 208.954 241.364C209.832 241.501 210.628 241.776 211.315 242.161C211.974 242.545 212.523 243.095 212.935 243.782C213.347 244.497 213.539 245.431 213.539 246.585C213.539 247.74 213.319 248.674 212.935 249.389C212.523 250.103 211.974 250.653 211.315 251.01C210.628 251.395 209.832 251.67 208.954 251.807C208.047 251.945 205.988 252.027 205.082 252.027V256.837L213.484 271.403C213.896 272.118 214.665 272.558 215.488 272.558H220.898L210.738 256.205C211.946 256.04 213.045 255.683 214.033 255.133L214.006 255.188Z" fill="#C4007A"/>
<path d="M261.013 267.473H243.111L262.963 241.308L263.018 241.226V236.306H236.713V239.109C236.713 240.374 237.757 241.418 239.02 241.418H256.126L236.192 267.583L236.137 267.665V272.585H263.347V269.782C263.347 268.517 262.304 267.473 261.041 267.473H261.013Z" fill="#C4007A"/>
<path d="M294.869 239.137V236.334H271.283V241.446H292.563C293.826 241.446 294.869 240.429 294.869 239.137Z" fill="#C4007A"/>
<path d="M289.048 251.505H271.283V256.617H289.048V251.505Z" fill="#C4007A"/>
<path d="M293.496 267.473H271.283V272.585H295.775V269.782C295.775 268.518 294.759 267.473 293.469 267.473H293.496Z" fill="#C4007A"/>
<path d="M329.438 238.615V265.164L310.218 236.444L310.136 236.306H303.354V272.585H308.763V243.754L328.175 272.475L328.258 272.612H334.847V236.334H331.745C330.482 236.334 329.438 237.378 329.438 238.642V238.615Z" fill="#C4007A"/>
<defs>
<linearGradient id="paint0_linear_2342_3649" x1="232.539" y1="-22.3169" x2="235.868" y2="496.002" gradientUnits="userSpaceOnUse">
<stop stop-color="#7BB690"/>
<stop offset="0.49" stop-color="#7AB592" stop-opacity="0"/>
</linearGradient>
<linearGradient id="paint1_linear_2342_3649" x1="232.759" y1="12.8625" x2="235.483" y2="434.823" gradientUnits="userSpaceOnUse">
<stop stop-color="#7BB690"/>
<stop offset="0.49" stop-color="#7AB592" stop-opacity="0"/>
</linearGradient>
</defs>
</svg>
