<?xml version="1.0" encoding="utf-8"?>
<svg version="1.1" id="Ebene_1" xmlns="http://www.w3.org/2000/svg" xmlns:xlink="http://www.w3.org/1999/xlink" x="0px" y="0px"
	 viewBox="0 0 48 48" xml:space="preserve">
<style type="text/css">
	.st0{fill:#FFFFFF;}
	.st1{opacity:0.7;}
</style>
<rect width="100%" height="100%" fill="black"/>
<g>
	<g>
		<g>
			<path class="st0" d="M15.8,34.9l1.2,1.7c0.7,0.9,1.9,1.2,2.9,0.7c1.2-0.7,2.6-1,4.1-1c1.4,0,2.8,0.4,4.1,1c1,0.5,2.3,0.3,2.9-0.7
				l1.2-1.7C29.9,33,27,31.9,24,31.9S18.1,33,15.8,34.9z"/>
		</g>
		<g>
			<path class="st0" d="M9.6,26.1l1.2,1.7c0.7,1,2,1.2,3,0.6c3-1.9,6.5-2.9,10.2-2.9c3.6,0,7.1,1,10.2,2.9c1,0.6,2.3,0.4,3-0.6
				l1.2-1.7c-4.1-3.2-9.1-4.9-14.4-4.9S13.7,22.9,9.6,26.1z"/>
		</g>
		<g>
			<path class="st0" d="M24,10.5c-7.5,0-14.7,2.4-20.6,6.9L4.6,19c0.7,1,2,1.2,3,0.6c4.8-3.2,10.5-4.8,16.4-4.8
				c5.9,0,11.5,1.7,16.4,4.8c1,0.7,2.3,0.4,3-0.6l1.2-1.7C38.7,12.9,31.5,10.5,24,10.5z"/>
		</g>
	</g>
</g>
</svg>
