<svg width="34" height="35" viewBox="0 0 34 35" fill="none" xmlns="http://www.w3.org/2000/svg">
    <path d="M16.9257 10.1834C19.4778 10.1834 21.5467 8.11451 21.5467 5.5624C21.5467 3.0103 19.4778 0.941406 16.9257 0.941406C14.3736 0.941406 12.3047 3.0103 12.3047 5.5624C12.3047 8.11451 14.3736 10.1834 16.9257 10.1834Z" fill="white"/>
    <path d="M16.9249 11.6445C19.4824 11.6445 21.5459 13.719 21.5459 16.2655V34.6727H12.293V16.2655C12.293 13.7081 14.3675 11.6445 16.914 11.6445H16.9249Z" fill="white"/>
    <path d="M4.88272 13.0154C7.43482 13.0154 9.50372 10.9465 9.50372 8.39444C9.50372 5.84233 7.43482 3.77344 4.88272 3.77344C2.33061 3.77344 0.261719 5.84233 0.261719 8.39444C0.261719 10.9465 2.33061 13.0154 4.88272 13.0154Z" fill="white"/>
    <path d="M4.88272 14.4766C7.44018 14.4766 9.50372 16.5511 9.50372 19.0976V34.6728H0.261719V19.0976C0.261719 16.5401 2.33623 14.4766 4.88272 14.4766Z" fill="white"/>
    <path d="M28.9218 16.4842C31.4739 16.4842 33.5428 14.4153 33.5428 11.8632C33.5428 9.31109 31.4739 7.24219 28.9218 7.24219C26.3697 7.24219 24.3008 9.31109 24.3008 11.8632C24.3008 14.4153 26.3697 16.4842 28.9218 16.4842Z" fill="white"/>
    <path d="M28.921 17.9453C31.4785 17.9453 33.542 20.0198 33.542 22.5663V34.6731H24.2891V22.5663C24.2891 20.0089 26.3636 17.9453 28.9101 17.9453H28.921Z" fill="white"/>
</svg>