<svg width="34" height="34" viewBox="0 0 34 34" fill="none" xmlns="http://www.w3.org/2000/svg">
    <path d="M16.8017 34.0014H16.7817C15.7017 34.0014 14.6217 33.9014 13.5817 33.6914C13.0417 33.5814 12.6917 33.0614 12.7917 32.5214C12.9017 31.9814 13.4217 31.6214 13.9617 31.7314C14.8817 31.9114 15.8317 32.0014 16.7817 32.0014C17.3317 32.0014 17.7917 32.4514 17.7917 33.0014C17.7917 33.5514 17.3517 34.0014 16.8017 34.0014ZM21.7917 33.1814C21.3717 33.1814 20.9817 32.9214 20.8417 32.5014C20.6617 31.9814 20.9417 31.4114 21.4617 31.2314C22.3617 30.9314 23.2317 30.5314 24.0517 30.0514C24.5317 29.7714 25.1417 29.9414 25.4217 30.4114C25.7017 30.8914 25.5317 31.5014 25.0617 31.7814C24.1217 32.3214 23.1317 32.7714 22.1117 33.1214C22.0017 33.1614 21.8917 33.1714 21.7917 33.1714V33.1814ZM9.04172 31.9414C8.87172 31.9414 8.70172 31.9014 8.54172 31.8114C7.61172 31.2714 6.72172 30.6414 5.91172 29.9314C5.49172 29.5714 5.45172 28.9314 5.82172 28.5214C6.18172 28.1014 6.82172 28.0614 7.23172 28.4314C7.95172 29.0614 8.72172 29.6114 9.55172 30.0914C10.0317 30.3714 10.1917 30.9814 9.92172 31.4614C9.73172 31.7814 9.40172 31.9614 9.05172 31.9614L9.04172 31.9414ZM28.4717 28.7114C28.2417 28.7114 28.0017 28.6314 27.8117 28.4614C27.3917 28.1014 27.3517 27.4614 27.7217 27.0514C28.3517 26.3414 28.9017 25.5614 29.3817 24.7414C29.6617 24.2614 30.2717 24.1014 30.7517 24.3714C31.2317 24.6514 31.3917 25.2614 31.1217 25.7414C30.5817 26.6714 29.9417 27.5614 29.2317 28.3714C29.0317 28.6014 28.7617 28.7114 28.4817 28.7114H28.4717ZM3.35172 26.2614C3.01172 26.2614 2.67172 26.0814 2.48172 25.7614C1.94172 24.8314 1.48172 23.8314 1.14172 22.8114C0.961719 22.2914 1.24172 21.7214 1.76172 21.5414C2.28172 21.3614 2.85172 21.6414 3.03172 22.1614C3.34172 23.0614 3.73172 23.9314 4.21172 24.7514C4.49172 25.2314 4.32172 25.8414 3.85172 26.1214C3.69172 26.2114 3.52172 26.2614 3.35172 26.2614ZM32.0217 21.5014C31.9617 21.5014 31.8917 21.5014 31.8317 21.4814C31.2917 21.3714 30.9417 20.8514 31.0417 20.3114C31.2217 19.3814 31.3217 18.4314 31.3217 17.4814C31.3217 16.9314 31.7717 16.4514 32.3217 16.4514C32.8717 16.4514 33.3217 16.8714 33.3217 17.4214V17.4814C33.3217 18.5614 33.2117 19.6514 33.0117 20.7014C32.9217 21.1814 32.5017 21.5114 32.0317 21.5114L32.0217 21.5014ZM1.26172 18.4914C0.711719 18.4914 0.261719 18.0614 0.261719 17.5114V17.4814C0.261719 16.4114 0.361719 15.3414 0.571719 14.2914C0.681719 13.7514 1.20172 13.3914 1.74172 13.5014C2.28172 13.6114 2.64172 14.1314 2.53172 14.6714C2.35172 15.5914 2.26172 16.5314 2.26172 17.4714C2.26172 18.0214 1.81172 18.4914 1.26172 18.4914ZM31.4817 13.4214C31.0617 13.4214 30.6817 13.1614 30.5317 12.7414C30.2217 11.8414 29.8217 10.9714 29.3417 10.1514C29.0617 9.67141 29.2217 9.0614 29.7017 8.7814C30.1817 8.5014 30.7917 8.6614 31.0717 9.1414C31.6217 10.0714 32.0717 11.0714 32.4217 12.0814C32.6017 12.6014 32.3217 13.1714 31.8017 13.3514C31.6917 13.3914 31.5817 13.4014 31.4717 13.4014L31.4817 13.4214ZM3.32172 10.7414C3.15172 10.7414 2.98172 10.7014 2.82172 10.6114C2.34172 10.3314 2.18172 9.72141 2.45172 9.24141C2.99172 8.30141 3.62172 7.42141 4.33172 6.60141C4.69172 6.18141 5.33172 6.1414 5.74172 6.5014C6.16172 6.8614 6.20172 7.50141 5.84172 7.91141C5.21172 8.63141 4.66172 9.4114 4.19172 10.2314C4.01172 10.5514 3.67172 10.7314 3.32172 10.7314V10.7414ZM26.9917 6.76141C26.7617 6.76141 26.5217 6.68141 26.3317 6.51141C25.6117 5.89141 24.8317 5.3314 24.0117 4.8614C23.5317 4.5914 23.3717 3.9714 23.6417 3.5014C23.9117 3.0314 24.5317 2.86141 25.0017 3.13141C25.9417 3.67141 26.8217 4.30141 27.6417 5.01141C28.0617 5.37141 28.1017 6.0014 27.7417 6.4214C27.5417 6.6514 27.2617 6.76141 26.9917 6.76141ZM8.99172 5.04141C8.65172 5.04141 8.31172 4.86141 8.12172 4.54141C7.84172 4.06141 8.00172 3.4514 8.48172 3.1714C9.41172 2.6314 10.4117 2.17141 11.4317 1.82141C11.9517 1.64141 12.5217 1.92141 12.7017 2.44141C12.8817 2.96141 12.6017 3.53141 12.0817 3.71141C11.1817 4.02141 10.3117 4.4114 9.49172 4.8914C9.33172 4.9814 9.16172 5.0314 8.99172 5.0314V5.04141ZM19.7717 3.2314C19.7117 3.2314 19.6417 3.23141 19.5817 3.21141C18.6717 3.03141 17.7317 2.94141 16.7917 2.94141C16.2417 2.94141 15.7717 2.49141 15.7717 1.94141C15.7717 1.39141 16.1917 0.941406 16.7517 0.941406H16.8017C17.8717 0.941406 18.9317 1.04141 19.9717 1.24141C20.5117 1.35141 20.8717 1.87141 20.7617 2.41141C20.6717 2.89141 20.2517 3.22141 19.7817 3.22141L19.7717 3.2314Z" fill="white"/>
    <path d="M20.1619 12.8895C20.1619 11.0295 18.6519 9.51953 16.7919 9.51953C14.9319 9.51953 13.4219 11.0295 13.4219 12.8895C13.4219 14.1795 14.1519 15.2895 15.2219 15.8595L14.3819 25.4395H19.2119L18.3719 15.8595C19.4419 15.2895 20.1719 14.1895 20.1719 12.8895H20.1619Z" fill="white"/>
</svg>