<svg width="28" height="37" viewBox="0 0 28 37" fill="none" xmlns="http://www.w3.org/2000/svg">
    <path d="M14.0903 15.583C17.277 15.583 19.8603 12.9997 19.8603 9.81297C19.8603 6.62629 17.277 4.04297 14.0903 4.04297C10.9036 4.04297 8.32031 6.62629 8.32031 9.81297C8.32031 12.9997 10.9036 15.583 14.0903 15.583Z" fill="white"/>
    <path d="M19.8603 31.4245L14.0903 36.3545L8.32031 31.4245V23.1645C8.32031 19.9745 10.9003 17.3945 14.0903 17.3945C17.2803 17.3945 19.8603 19.9745 19.8603 23.1645V31.4245Z" fill="white"/>
    <path d="M14.0917 36.5614C13.7617 36.5614 13.4317 36.4514 13.1517 36.2214L5.36172 29.7514C2.12172 27.0614 0.261719 23.0914 0.261719 18.8714V4.34141C0.261719 2.46141 1.79172 0.941406 3.66172 0.941406H24.5117C26.3917 0.941406 27.9117 2.47141 27.9117 4.34141V18.8814C27.9117 23.1014 26.0517 27.0614 22.8117 29.7614L15.0217 36.2314C14.7517 36.4614 14.4217 36.5714 14.0817 36.5714L14.0917 36.5614ZM3.67172 1.94141C2.35172 1.94141 1.27172 3.02141 1.27172 4.34141V18.8814C1.27172 22.8014 3.00172 26.4814 6.01172 28.9914L13.8017 35.4614C13.9717 35.6014 14.2217 35.6014 14.3917 35.4614L22.1817 28.9914C25.1917 26.4914 26.9217 22.8014 26.9217 18.8814V4.34141C26.9217 3.02141 25.8417 1.94141 24.5217 1.94141H3.67172Z" fill="white"/>
</svg>