<svg width="28" height="19" viewBox="0 0 28 19" fill="none" xmlns="http://www.w3.org/2000/svg">
    <path d="M8.32031 16.7811L9.10031 17.8911C9.53031 18.5011 10.3403 18.6711 11.0003 18.3211C11.8003 17.8911 12.7003 17.6611 13.6403 17.6611C14.5803 17.6611 15.4803 17.8911 16.2803 18.3211C16.9303 18.6711 17.7503 18.4911 18.1803 17.8911L18.9603 16.7811C17.4703 15.5411 15.6103 14.8711 13.6403 14.8711C11.6703 14.8711 9.81031 15.5411 8.32031 16.7811V16.7811Z" fill="white"/>
    <path d="M4.29297 11.0902L5.07297 12.1802C5.52297 12.8202 6.39297 12.9802 7.05297 12.5602C9.01297 11.3402 11.283 10.6802 13.653 10.6802C16.023 10.6802 18.293 11.3402 20.253 12.5602C20.913 12.9702 21.783 12.8102 22.233 12.1802L23.013 11.0902C20.343 9.03016 17.093 7.91016 13.663 7.91016C10.233 7.91016 6.97297 9.03016 4.31297 11.0902H4.29297Z" fill="white"/>
    <path d="M13.6417 0.941406C8.75172 0.941406 4.10172 2.51141 0.261719 5.40141L1.03172 6.49141C1.48172 7.12141 2.35172 7.30141 3.01172 6.87141C6.15172 4.82141 9.81172 3.72141 13.6517 3.72141C17.4917 3.72141 21.1517 4.82141 24.2917 6.87141C24.9417 7.30141 25.8217 7.12141 26.2717 6.49141L27.0417 5.40141C23.1917 2.51141 18.5417 0.941406 13.6417 0.941406Z" fill="white"/>
</svg>