<svg width="30" height="46" viewBox="0 0 30 46" fill="none" xmlns="http://www.w3.org/2000/svg">
    <path d="M8.98438 18.0789L9.83338 19.2752C10.2965 19.9312 11.1841 20.1242 11.8916 19.7383C12.7534 19.2752 13.7311 19.0179 14.7473 19.0179C15.7635 19.0179 16.7412 19.2623 17.603 19.7383C18.3105 20.1242 19.1853 19.9312 19.6612 19.2752L20.5102 18.0789C18.8894 16.741 16.8827 16.0078 14.7473 16.0078C12.6119 16.0078 10.6052 16.741 8.98438 18.0789Z" fill="white"/>
    <path d="M4.62338 11.9162L5.45952 13.0997C5.94834 13.7815 6.88739 13.9615 7.5949 13.5113C9.7174 12.1864 12.1744 11.4789 14.7342 11.4789C17.2941 11.4789 19.7511 12.1864 21.8736 13.5113C22.594 13.9615 23.5201 13.7815 24.009 13.0997L24.8451 11.9162C21.9636 9.67795 18.439 8.46875 14.7214 8.46875C11.0038 8.46875 7.49199 9.67795 4.59766 11.9162H4.62338Z" fill="white"/>
    <path d="M14.7462 0.941406C9.44639 0.941406 4.41669 2.63941 0.261719 5.77815L1.09786 6.9616C1.58668 7.64338 2.52573 7.83634 3.23323 7.37325C6.62924 5.1607 10.5913 3.96436 14.7462 3.96436C18.9012 3.96436 22.8632 5.1607 26.2592 7.37325C26.9667 7.83634 27.9058 7.64338 28.3946 6.9616L29.2307 5.77815C25.0758 2.63941 20.0461 0.941406 14.7462 0.941406Z" fill="white"/>
    <path d="M16.7656 26.3203H2.58984V45.8603H16.7656V26.3203Z" fill="white"/>
    <path d="M26.9063 33.6289H12.7305V45.8623H26.9063V33.6289Z" fill="white"/>
</svg>