<svg width="36" height="46" viewBox="0 0 36 46" fill="none" xmlns="http://www.w3.org/2000/svg">
    <path d="M13.5517 27.5214C6.22172 27.5214 0.261719 21.5614 0.261719 14.2314C0.261719 6.9014 6.22172 0.941406 13.5517 0.941406C20.8817 0.941406 26.8417 6.9014 26.8417 14.2314C26.8417 21.5614 20.8817 27.5214 13.5517 27.5214ZM13.5517 1.94141C6.77172 1.94141 1.26172 7.4514 1.26172 14.2314C1.26172 21.0114 6.77172 26.5214 13.5517 26.5214C20.3317 26.5214 25.8417 21.0114 25.8417 14.2314C25.8417 7.4514 20.3317 1.94141 13.5517 1.94141Z" fill="white"/>
    <path d="M26.3408 32.8222C21.0808 32.8222 16.8008 28.5422 16.8008 23.2822C16.8008 18.0222 21.0808 13.7422 26.3408 13.7422C31.6008 13.7422 35.8808 18.0222 35.8808 23.2822C35.8808 28.5422 31.6008 32.8222 26.3408 32.8222ZM26.3408 14.7322C21.6308 14.7322 17.8008 18.5622 17.8008 23.2722C17.8008 27.9822 21.6308 31.8122 26.3408 31.8122C31.0508 31.8122 34.8808 27.9822 34.8808 23.2722C34.8808 18.5622 31.0508 14.7322 26.3408 14.7322Z" fill="white"/>
    <path d="M11.5225 45.2403C7.8225 45.2403 4.8125 42.2303 4.8125 38.5303C4.8125 34.8303 7.8225 31.8203 11.5225 31.8203C15.2225 31.8203 18.2325 34.8303 18.2325 38.5303C18.2325 42.2303 15.2225 45.2403 11.5225 45.2403ZM11.5225 32.8203C8.3725 32.8203 5.8125 35.3803 5.8125 38.5303C5.8125 41.6803 8.3725 44.2403 11.5225 44.2403C14.6725 44.2403 17.2325 41.6803 17.2325 38.5303C17.2325 35.3803 14.6725 32.8203 11.5225 32.8203Z" fill="white"/>
</svg>